G04 EAGLE Gerber RS-274X export*
G75*
%MOMM*%
%FSLAX34Y34*%
%LPD*%
%INBottom Copper*%
%IPPOS*%
%AMOC8*
5,1,8,0,0,1.08239X$1,22.5*%
G01*
%ADD10P,1.484606X8X112.500000*%
%ADD11P,1.484606X8X292.500000*%
%ADD12P,1.319650X8X22.500000*%
%ADD13P,1.319650X8X112.500000*%
%ADD14P,1.319650X8X292.500000*%
%ADD15P,1.649562X8X112.500000*%
%ADD16R,1.524000X1.524000*%
%ADD17C,1.524000*%
%ADD18C,1.524000*%
%ADD19R,1.650000X1.650000*%
%ADD20C,1.650000*%
%ADD21C,0.304800*%
%ADD22C,0.203200*%

G36*
X491638Y7624D02*
X491638Y7624D01*
X491657Y7622D01*
X491759Y7644D01*
X491861Y7660D01*
X491878Y7670D01*
X491898Y7674D01*
X491987Y7727D01*
X492078Y7776D01*
X492092Y7790D01*
X492109Y7800D01*
X492176Y7879D01*
X492248Y7954D01*
X492256Y7972D01*
X492269Y7987D01*
X492308Y8083D01*
X492351Y8177D01*
X492353Y8197D01*
X492361Y8215D01*
X492379Y8382D01*
X492379Y441618D01*
X492376Y441638D01*
X492378Y441657D01*
X492356Y441759D01*
X492340Y441861D01*
X492330Y441878D01*
X492326Y441898D01*
X492273Y441987D01*
X492224Y442078D01*
X492210Y442092D01*
X492200Y442109D01*
X492121Y442176D01*
X492046Y442248D01*
X492028Y442256D01*
X492013Y442269D01*
X491917Y442308D01*
X491823Y442351D01*
X491803Y442353D01*
X491785Y442361D01*
X491618Y442379D01*
X8382Y442379D01*
X8362Y442376D01*
X8343Y442378D01*
X8241Y442356D01*
X8139Y442340D01*
X8122Y442330D01*
X8102Y442326D01*
X8013Y442273D01*
X7922Y442224D01*
X7908Y442210D01*
X7891Y442200D01*
X7824Y442121D01*
X7752Y442046D01*
X7744Y442028D01*
X7731Y442013D01*
X7692Y441917D01*
X7649Y441823D01*
X7647Y441803D01*
X7639Y441785D01*
X7621Y441618D01*
X7621Y8382D01*
X7624Y8362D01*
X7622Y8343D01*
X7644Y8241D01*
X7660Y8139D01*
X7670Y8122D01*
X7674Y8102D01*
X7727Y8013D01*
X7776Y7922D01*
X7790Y7908D01*
X7800Y7891D01*
X7879Y7824D01*
X7954Y7752D01*
X7972Y7744D01*
X7987Y7731D01*
X8083Y7692D01*
X8177Y7649D01*
X8197Y7647D01*
X8215Y7639D01*
X8382Y7621D01*
X491618Y7621D01*
X491638Y7624D01*
G37*
%LPC*%
G36*
X352407Y14731D02*
X352407Y14731D01*
X346455Y20683D01*
X346455Y28060D01*
X346441Y28150D01*
X346433Y28241D01*
X346421Y28271D01*
X346416Y28303D01*
X346373Y28384D01*
X346337Y28468D01*
X346311Y28500D01*
X346300Y28520D01*
X346277Y28543D01*
X346232Y28598D01*
X326135Y48695D01*
X326135Y131620D01*
X326124Y131691D01*
X326122Y131762D01*
X326104Y131811D01*
X326096Y131863D01*
X326062Y131926D01*
X326037Y131993D01*
X326005Y132034D01*
X325980Y132080D01*
X325928Y132130D01*
X325884Y132186D01*
X325840Y132214D01*
X325802Y132250D01*
X325737Y132280D01*
X325677Y132319D01*
X325626Y132331D01*
X325579Y132353D01*
X325508Y132361D01*
X325438Y132379D01*
X325386Y132375D01*
X325335Y132380D01*
X325264Y132365D01*
X325193Y132359D01*
X325145Y132339D01*
X325094Y132328D01*
X325033Y132291D01*
X324967Y132263D01*
X324911Y132218D01*
X324883Y132202D01*
X324868Y132184D01*
X324836Y132158D01*
X319677Y126999D01*
X311259Y126999D01*
X305307Y132951D01*
X305307Y141369D01*
X311259Y147321D01*
X319677Y147321D01*
X324836Y142162D01*
X324894Y142120D01*
X324946Y142070D01*
X324993Y142049D01*
X325035Y142018D01*
X325104Y141997D01*
X325169Y141967D01*
X325221Y141961D01*
X325271Y141946D01*
X325342Y141948D01*
X325413Y141940D01*
X325464Y141951D01*
X325516Y141952D01*
X325584Y141977D01*
X325654Y141992D01*
X325699Y142019D01*
X325747Y142037D01*
X325803Y142081D01*
X325865Y142118D01*
X325899Y142158D01*
X325939Y142190D01*
X325978Y142251D01*
X326025Y142305D01*
X326044Y142353D01*
X326072Y142397D01*
X326090Y142467D01*
X326117Y142533D01*
X326125Y142605D01*
X326133Y142636D01*
X326131Y142659D01*
X326135Y142700D01*
X326135Y167057D01*
X326124Y167127D01*
X326122Y167199D01*
X326104Y167248D01*
X326096Y167300D01*
X326062Y167363D01*
X326037Y167430D01*
X326005Y167471D01*
X325980Y167517D01*
X325928Y167566D01*
X325884Y167622D01*
X325840Y167650D01*
X325802Y167686D01*
X325737Y167716D01*
X325677Y167755D01*
X325626Y167768D01*
X325579Y167790D01*
X325508Y167798D01*
X325438Y167815D01*
X325386Y167811D01*
X325335Y167817D01*
X325264Y167802D01*
X325193Y167796D01*
X325145Y167776D01*
X325094Y167765D01*
X325033Y167728D01*
X324967Y167700D01*
X324911Y167655D01*
X324883Y167639D01*
X324868Y167621D01*
X324836Y167595D01*
X323103Y165862D01*
X318808Y164083D01*
X314160Y164083D01*
X313240Y164464D01*
X313127Y164491D01*
X313013Y164519D01*
X313007Y164519D01*
X313001Y164520D01*
X312884Y164509D01*
X312768Y164500D01*
X312762Y164498D01*
X312756Y164497D01*
X312648Y164449D01*
X312542Y164404D01*
X312536Y164399D01*
X312531Y164397D01*
X312518Y164384D01*
X312411Y164299D01*
X266924Y118812D01*
X266871Y118738D01*
X266811Y118669D01*
X266799Y118638D01*
X266780Y118612D01*
X266753Y118525D01*
X266719Y118440D01*
X266715Y118400D01*
X266708Y118377D01*
X266709Y118345D01*
X266701Y118274D01*
X266701Y115279D01*
X266720Y115164D01*
X266737Y115048D01*
X266739Y115042D01*
X266740Y115036D01*
X266795Y114933D01*
X266848Y114829D01*
X266853Y114824D01*
X266856Y114819D01*
X266941Y114738D01*
X267024Y114656D01*
X267030Y114653D01*
X267034Y114649D01*
X267051Y114641D01*
X267171Y114575D01*
X267223Y114554D01*
X270510Y111267D01*
X272289Y106972D01*
X272289Y102324D01*
X270510Y98029D01*
X267223Y94742D01*
X262928Y92963D01*
X258280Y92963D01*
X253985Y94742D01*
X250698Y98029D01*
X248919Y102324D01*
X248919Y106972D01*
X250698Y111267D01*
X253985Y114554D01*
X255053Y114996D01*
X255153Y115058D01*
X255253Y115118D01*
X255257Y115123D01*
X255262Y115126D01*
X255337Y115216D01*
X255413Y115305D01*
X255415Y115311D01*
X255419Y115315D01*
X255461Y115423D01*
X255505Y115533D01*
X255506Y115540D01*
X255507Y115545D01*
X255508Y115563D01*
X255523Y115700D01*
X255523Y118274D01*
X255509Y118364D01*
X255501Y118455D01*
X255489Y118485D01*
X255484Y118516D01*
X255441Y118597D01*
X255405Y118681D01*
X255379Y118713D01*
X255368Y118734D01*
X255345Y118756D01*
X255300Y118812D01*
X229556Y144556D01*
X229482Y144609D01*
X229413Y144669D01*
X229382Y144681D01*
X229356Y144700D01*
X229269Y144727D01*
X229184Y144761D01*
X229144Y144765D01*
X229121Y144772D01*
X229089Y144771D01*
X229018Y144779D01*
X222456Y144779D01*
X222385Y144768D01*
X222314Y144766D01*
X222265Y144748D01*
X222213Y144740D01*
X222150Y144706D01*
X222083Y144681D01*
X222042Y144649D01*
X221996Y144624D01*
X221946Y144572D01*
X221890Y144528D01*
X221862Y144484D01*
X221826Y144446D01*
X221796Y144381D01*
X221757Y144321D01*
X221745Y144270D01*
X221723Y144223D01*
X221715Y144152D01*
X221697Y144082D01*
X221701Y144030D01*
X221696Y143979D01*
X221711Y143908D01*
X221717Y143837D01*
X221737Y143789D01*
X221748Y143738D01*
X221785Y143677D01*
X221813Y143611D01*
X221858Y143555D01*
X221874Y143527D01*
X221892Y143512D01*
X221918Y143480D01*
X224029Y141369D01*
X224029Y132951D01*
X218077Y126999D01*
X209659Y126999D01*
X203707Y132951D01*
X203707Y141369D01*
X205818Y143480D01*
X205860Y143538D01*
X205910Y143590D01*
X205931Y143637D01*
X205962Y143679D01*
X205983Y143748D01*
X206013Y143813D01*
X206019Y143865D01*
X206034Y143915D01*
X206032Y143986D01*
X206040Y144057D01*
X206029Y144108D01*
X206028Y144160D01*
X206003Y144228D01*
X205988Y144298D01*
X205961Y144343D01*
X205943Y144391D01*
X205899Y144447D01*
X205862Y144509D01*
X205822Y144543D01*
X205790Y144583D01*
X205729Y144622D01*
X205675Y144669D01*
X205627Y144688D01*
X205583Y144716D01*
X205513Y144734D01*
X205447Y144761D01*
X205375Y144769D01*
X205344Y144777D01*
X205321Y144775D01*
X205280Y144779D01*
X186511Y144779D01*
X186441Y144768D01*
X186369Y144766D01*
X186320Y144748D01*
X186268Y144740D01*
X186205Y144706D01*
X186138Y144681D01*
X186097Y144649D01*
X186051Y144624D01*
X186002Y144572D01*
X185946Y144528D01*
X185918Y144484D01*
X185882Y144446D01*
X185852Y144381D01*
X185813Y144321D01*
X185800Y144270D01*
X185778Y144223D01*
X185770Y144152D01*
X185753Y144082D01*
X185757Y144030D01*
X185751Y143979D01*
X185766Y143908D01*
X185772Y143837D01*
X185792Y143789D01*
X185803Y143738D01*
X185840Y143677D01*
X185868Y143611D01*
X185913Y143555D01*
X185929Y143527D01*
X185947Y143512D01*
X185973Y143480D01*
X186945Y142508D01*
X186945Y135218D01*
X186959Y135128D01*
X186967Y135037D01*
X186979Y135007D01*
X186984Y134975D01*
X187027Y134895D01*
X187063Y134811D01*
X187089Y134779D01*
X187100Y134758D01*
X187123Y134736D01*
X187168Y134680D01*
X223638Y98209D01*
X223717Y98153D01*
X223792Y98090D01*
X223817Y98081D01*
X223838Y98066D01*
X223931Y98037D01*
X224022Y98002D01*
X224048Y98001D01*
X224073Y97993D01*
X224170Y97996D01*
X224268Y97992D01*
X224293Y97999D01*
X224319Y98000D01*
X224411Y98033D01*
X224504Y98060D01*
X224525Y98075D01*
X224550Y98084D01*
X224626Y98145D01*
X224706Y98201D01*
X224722Y98222D01*
X224742Y98238D01*
X224795Y98320D01*
X224853Y98398D01*
X224861Y98423D01*
X224875Y98445D01*
X224899Y98539D01*
X224929Y98632D01*
X224929Y98658D01*
X224935Y98683D01*
X224928Y98780D01*
X224927Y98878D01*
X224917Y98909D01*
X224916Y98929D01*
X224903Y98959D01*
X224880Y99039D01*
X223519Y102324D01*
X223519Y106972D01*
X225298Y111267D01*
X228585Y114554D01*
X232880Y116333D01*
X237528Y116333D01*
X241823Y114554D01*
X245110Y111267D01*
X246889Y106972D01*
X246889Y102324D01*
X245110Y98029D01*
X241823Y94742D01*
X237528Y92963D01*
X232880Y92963D01*
X229595Y94324D01*
X229500Y94346D01*
X229407Y94375D01*
X229381Y94374D01*
X229355Y94380D01*
X229259Y94371D01*
X229161Y94368D01*
X229137Y94359D01*
X229111Y94357D01*
X229022Y94317D01*
X228930Y94284D01*
X228910Y94268D01*
X228886Y94257D01*
X228814Y94191D01*
X228738Y94130D01*
X228724Y94108D01*
X228705Y94091D01*
X228658Y94005D01*
X228605Y93923D01*
X228599Y93898D01*
X228586Y93875D01*
X228569Y93779D01*
X228545Y93685D01*
X228547Y93659D01*
X228542Y93633D01*
X228557Y93536D01*
X228564Y93440D01*
X228574Y93416D01*
X228578Y93390D01*
X228623Y93303D01*
X228661Y93213D01*
X228681Y93188D01*
X228690Y93170D01*
X228713Y93147D01*
X228765Y93082D01*
X281931Y39917D01*
X282025Y39849D01*
X282119Y39779D01*
X282125Y39777D01*
X282130Y39773D01*
X282241Y39739D01*
X282353Y39703D01*
X282360Y39703D01*
X282366Y39701D01*
X282482Y39704D01*
X282599Y39705D01*
X282606Y39707D01*
X282611Y39707D01*
X282629Y39714D01*
X282760Y39752D01*
X283680Y40133D01*
X288328Y40133D01*
X292623Y38354D01*
X295910Y35067D01*
X297689Y30772D01*
X297689Y26124D01*
X295910Y21829D01*
X292623Y18542D01*
X288328Y16763D01*
X283680Y16763D01*
X279385Y18542D01*
X276098Y21829D01*
X274319Y26124D01*
X274319Y30772D01*
X274403Y30973D01*
X274411Y31008D01*
X274414Y31014D01*
X274415Y31027D01*
X274429Y31087D01*
X274458Y31200D01*
X274457Y31207D01*
X274459Y31213D01*
X274448Y31329D01*
X274439Y31446D01*
X274436Y31451D01*
X274436Y31458D01*
X274388Y31565D01*
X274342Y31672D01*
X274338Y31678D01*
X274336Y31682D01*
X274323Y31696D01*
X274238Y31803D01*
X272888Y33152D01*
X272809Y33209D01*
X272734Y33271D01*
X272710Y33281D01*
X272688Y33296D01*
X272595Y33324D01*
X272504Y33359D01*
X272478Y33360D01*
X272453Y33368D01*
X272356Y33366D01*
X272259Y33370D01*
X272234Y33362D01*
X272207Y33362D01*
X272116Y33328D01*
X272022Y33301D01*
X272001Y33286D01*
X271976Y33277D01*
X271900Y33216D01*
X271820Y33161D01*
X271805Y33140D01*
X271784Y33124D01*
X271732Y33041D01*
X271674Y32964D01*
X271666Y32939D01*
X271651Y32917D01*
X271628Y32822D01*
X271597Y32730D01*
X271598Y32704D01*
X271591Y32678D01*
X271599Y32581D01*
X271600Y32484D01*
X271609Y32452D01*
X271610Y32433D01*
X271623Y32403D01*
X271647Y32323D01*
X272289Y30772D01*
X272289Y26124D01*
X270510Y21829D01*
X267223Y18542D01*
X262928Y16763D01*
X258280Y16763D01*
X253985Y18542D01*
X250698Y21829D01*
X248919Y26124D01*
X248919Y30772D01*
X250698Y35067D01*
X253985Y38354D01*
X258280Y40133D01*
X262928Y40133D01*
X264479Y39491D01*
X264573Y39468D01*
X264666Y39440D01*
X264693Y39440D01*
X264718Y39434D01*
X264815Y39443D01*
X264912Y39446D01*
X264937Y39455D01*
X264963Y39457D01*
X265052Y39497D01*
X265143Y39530D01*
X265164Y39547D01*
X265188Y39557D01*
X265259Y39623D01*
X265335Y39684D01*
X265350Y39706D01*
X265369Y39724D01*
X265416Y39809D01*
X265468Y39891D01*
X265475Y39916D01*
X265487Y39939D01*
X265505Y40035D01*
X265528Y40130D01*
X265526Y40156D01*
X265531Y40181D01*
X265517Y40278D01*
X265509Y40375D01*
X265499Y40399D01*
X265495Y40425D01*
X265451Y40512D01*
X265413Y40601D01*
X265393Y40627D01*
X265384Y40644D01*
X265360Y40667D01*
X265308Y40732D01*
X199166Y106874D01*
X199108Y106916D01*
X199056Y106965D01*
X199009Y106987D01*
X198967Y107018D01*
X198898Y107039D01*
X198833Y107069D01*
X198781Y107075D01*
X198731Y107090D01*
X198660Y107088D01*
X198589Y107096D01*
X198538Y107085D01*
X198486Y107084D01*
X198418Y107059D01*
X198348Y107044D01*
X198304Y107017D01*
X198255Y106999D01*
X198199Y106954D01*
X198137Y106918D01*
X198103Y106878D01*
X198063Y106845D01*
X198024Y106785D01*
X197977Y106731D01*
X197958Y106682D01*
X197930Y106639D01*
X197912Y106569D01*
X197885Y106503D01*
X197877Y106431D01*
X197869Y106400D01*
X197871Y106377D01*
X197867Y106336D01*
X197867Y103803D01*
X192361Y98297D01*
X189991Y98297D01*
X189991Y106934D01*
X189988Y106954D01*
X189990Y106973D01*
X189968Y107074D01*
X189951Y107177D01*
X189942Y107194D01*
X189938Y107214D01*
X189885Y107303D01*
X189836Y107394D01*
X189822Y107408D01*
X189812Y107425D01*
X189733Y107492D01*
X189658Y107563D01*
X189640Y107572D01*
X189625Y107585D01*
X189529Y107623D01*
X189435Y107667D01*
X189415Y107669D01*
X189397Y107677D01*
X189230Y107695D01*
X188467Y107695D01*
X188467Y108458D01*
X188464Y108478D01*
X188466Y108497D01*
X188444Y108599D01*
X188427Y108701D01*
X188418Y108718D01*
X188414Y108738D01*
X188361Y108827D01*
X188312Y108918D01*
X188298Y108932D01*
X188288Y108949D01*
X188209Y109016D01*
X188134Y109087D01*
X188116Y109096D01*
X188101Y109109D01*
X188005Y109148D01*
X187911Y109191D01*
X187891Y109193D01*
X187873Y109201D01*
X187706Y109219D01*
X179069Y109219D01*
X179069Y111589D01*
X184575Y117095D01*
X187108Y117095D01*
X187179Y117106D01*
X187250Y117108D01*
X187299Y117126D01*
X187351Y117134D01*
X187414Y117168D01*
X187481Y117193D01*
X187522Y117225D01*
X187568Y117250D01*
X187617Y117301D01*
X187673Y117346D01*
X187701Y117390D01*
X187737Y117428D01*
X187767Y117493D01*
X187806Y117553D01*
X187819Y117604D01*
X187841Y117651D01*
X187849Y117722D01*
X187866Y117792D01*
X187862Y117844D01*
X187868Y117895D01*
X187853Y117966D01*
X187847Y118037D01*
X187827Y118085D01*
X187816Y118136D01*
X187779Y118197D01*
X187751Y118263D01*
X187706Y118319D01*
X187690Y118347D01*
X187672Y118362D01*
X187646Y118394D01*
X180280Y125760D01*
X180206Y125813D01*
X180137Y125873D01*
X180106Y125885D01*
X180080Y125904D01*
X179993Y125931D01*
X179908Y125965D01*
X179868Y125969D01*
X179845Y125976D01*
X179813Y125975D01*
X179742Y125983D01*
X170420Y125983D01*
X169448Y126955D01*
X169390Y126997D01*
X169338Y127046D01*
X169291Y127068D01*
X169249Y127099D01*
X169180Y127120D01*
X169115Y127150D01*
X169063Y127156D01*
X169013Y127171D01*
X168942Y127169D01*
X168871Y127177D01*
X168820Y127166D01*
X168768Y127165D01*
X168700Y127140D01*
X168630Y127125D01*
X168585Y127098D01*
X168537Y127080D01*
X168481Y127035D01*
X168419Y126999D01*
X168385Y126959D01*
X168345Y126926D01*
X168306Y126866D01*
X168259Y126812D01*
X168240Y126763D01*
X168212Y126720D01*
X168194Y126650D01*
X168167Y126583D01*
X168159Y126512D01*
X168151Y126481D01*
X168153Y126458D01*
X168149Y126417D01*
X168149Y120808D01*
X167298Y118754D01*
X137892Y89348D01*
X137839Y89274D01*
X137779Y89205D01*
X137767Y89174D01*
X137748Y89148D01*
X137721Y89061D01*
X137687Y88976D01*
X137683Y88936D01*
X137676Y88913D01*
X137677Y88881D01*
X137669Y88810D01*
X137669Y40654D01*
X137683Y40564D01*
X137691Y40473D01*
X137703Y40443D01*
X137708Y40411D01*
X137751Y40330D01*
X137787Y40246D01*
X137813Y40214D01*
X137824Y40194D01*
X137847Y40171D01*
X137892Y40115D01*
X142495Y35512D01*
X142495Y26464D01*
X136096Y20065D01*
X127048Y20065D01*
X120649Y26464D01*
X120649Y35512D01*
X126268Y41131D01*
X126321Y41205D01*
X126381Y41275D01*
X126393Y41305D01*
X126412Y41331D01*
X126439Y41418D01*
X126473Y41503D01*
X126477Y41544D01*
X126484Y41566D01*
X126483Y41598D01*
X126491Y41670D01*
X126491Y92552D01*
X127342Y94606D01*
X129226Y96490D01*
X129268Y96548D01*
X129317Y96600D01*
X129339Y96647D01*
X129370Y96689D01*
X129391Y96758D01*
X129421Y96823D01*
X129427Y96875D01*
X129442Y96925D01*
X129440Y96996D01*
X129448Y97067D01*
X129437Y97118D01*
X129436Y97170D01*
X129411Y97238D01*
X129396Y97308D01*
X129369Y97353D01*
X129351Y97401D01*
X129306Y97457D01*
X129270Y97519D01*
X129230Y97553D01*
X129197Y97593D01*
X129137Y97632D01*
X129083Y97679D01*
X129034Y97698D01*
X128991Y97726D01*
X128921Y97744D01*
X128855Y97771D01*
X128783Y97779D01*
X128752Y97787D01*
X128729Y97785D01*
X128688Y97789D01*
X127679Y97789D01*
X122173Y103295D01*
X122173Y105665D01*
X130810Y105665D01*
X130830Y105668D01*
X130849Y105666D01*
X130951Y105688D01*
X131053Y105705D01*
X131070Y105714D01*
X131090Y105718D01*
X131179Y105771D01*
X131270Y105820D01*
X131284Y105834D01*
X131301Y105844D01*
X131368Y105923D01*
X131439Y105998D01*
X131448Y106016D01*
X131461Y106031D01*
X131499Y106127D01*
X131543Y106221D01*
X131545Y106241D01*
X131553Y106259D01*
X131571Y106426D01*
X131571Y107189D01*
X132334Y107189D01*
X132354Y107192D01*
X132373Y107190D01*
X132475Y107212D01*
X132577Y107229D01*
X132594Y107238D01*
X132614Y107242D01*
X132703Y107295D01*
X132794Y107344D01*
X132808Y107358D01*
X132825Y107368D01*
X132892Y107447D01*
X132963Y107522D01*
X132972Y107540D01*
X132985Y107555D01*
X133024Y107651D01*
X133067Y107745D01*
X133069Y107765D01*
X133077Y107783D01*
X133095Y107950D01*
X133095Y116587D01*
X135465Y116587D01*
X140971Y111081D01*
X140971Y110072D01*
X140982Y110001D01*
X140984Y109930D01*
X141002Y109881D01*
X141010Y109829D01*
X141044Y109766D01*
X141069Y109699D01*
X141101Y109658D01*
X141126Y109612D01*
X141178Y109563D01*
X141222Y109507D01*
X141266Y109479D01*
X141304Y109443D01*
X141369Y109413D01*
X141429Y109374D01*
X141480Y109361D01*
X141527Y109339D01*
X141598Y109331D01*
X141668Y109314D01*
X141720Y109318D01*
X141771Y109312D01*
X141842Y109327D01*
X141913Y109333D01*
X141961Y109353D01*
X142012Y109364D01*
X142073Y109401D01*
X142139Y109429D01*
X142195Y109474D01*
X142223Y109490D01*
X142238Y109508D01*
X142270Y109534D01*
X156748Y124012D01*
X156801Y124086D01*
X156861Y124155D01*
X156873Y124186D01*
X156892Y124212D01*
X156919Y124299D01*
X156953Y124384D01*
X156957Y124424D01*
X156964Y124447D01*
X156963Y124479D01*
X156971Y124550D01*
X156971Y143352D01*
X157822Y145406D01*
X163860Y151444D01*
X163913Y151518D01*
X163973Y151587D01*
X163985Y151618D01*
X164004Y151644D01*
X164031Y151731D01*
X164065Y151816D01*
X164069Y151856D01*
X164076Y151879D01*
X164075Y151911D01*
X164083Y151982D01*
X164083Y207682D01*
X164069Y207772D01*
X164061Y207863D01*
X164049Y207893D01*
X164044Y207924D01*
X164001Y208005D01*
X163965Y208089D01*
X163939Y208121D01*
X163928Y208142D01*
X163905Y208164D01*
X163860Y208220D01*
X134396Y237684D01*
X134338Y237726D01*
X134286Y237775D01*
X134239Y237797D01*
X134197Y237828D01*
X134128Y237849D01*
X134063Y237879D01*
X134011Y237885D01*
X133961Y237900D01*
X133890Y237898D01*
X133819Y237906D01*
X133768Y237895D01*
X133716Y237894D01*
X133648Y237869D01*
X133578Y237854D01*
X133533Y237827D01*
X133485Y237809D01*
X133429Y237764D01*
X133367Y237728D01*
X133333Y237688D01*
X133293Y237655D01*
X133254Y237595D01*
X133207Y237541D01*
X133188Y237492D01*
X133160Y237449D01*
X133142Y237379D01*
X133115Y237313D01*
X133107Y237241D01*
X133099Y237210D01*
X133101Y237187D01*
X133097Y237146D01*
X133097Y237091D01*
X127145Y231139D01*
X118727Y231139D01*
X112775Y237091D01*
X112775Y245509D01*
X118727Y251461D01*
X125730Y251461D01*
X125750Y251464D01*
X125769Y251462D01*
X125871Y251484D01*
X125973Y251500D01*
X125990Y251510D01*
X126010Y251514D01*
X126099Y251567D01*
X126190Y251616D01*
X126204Y251630D01*
X126221Y251640D01*
X126288Y251719D01*
X126360Y251794D01*
X126368Y251812D01*
X126381Y251827D01*
X126420Y251923D01*
X126463Y252017D01*
X126465Y252037D01*
X126473Y252055D01*
X126491Y252222D01*
X126491Y333742D01*
X126477Y333832D01*
X126469Y333923D01*
X126457Y333953D01*
X126452Y333985D01*
X126409Y334066D01*
X126373Y334150D01*
X126347Y334182D01*
X126336Y334202D01*
X126313Y334225D01*
X126268Y334281D01*
X120649Y339900D01*
X120649Y348948D01*
X127048Y355347D01*
X136096Y355347D01*
X142495Y348948D01*
X142495Y339900D01*
X137892Y335297D01*
X137839Y335223D01*
X137779Y335153D01*
X137767Y335123D01*
X137748Y335097D01*
X137721Y335010D01*
X137687Y334925D01*
X137683Y334884D01*
X137676Y334862D01*
X137677Y334830D01*
X137669Y334758D01*
X137669Y250534D01*
X137683Y250444D01*
X137691Y250353D01*
X137703Y250323D01*
X137708Y250292D01*
X137751Y250211D01*
X137787Y250127D01*
X137813Y250095D01*
X137824Y250074D01*
X137847Y250052D01*
X137892Y249996D01*
X174410Y213478D01*
X175261Y211424D01*
X175261Y156718D01*
X175264Y156698D01*
X175262Y156679D01*
X175284Y156577D01*
X175300Y156475D01*
X175310Y156458D01*
X175314Y156438D01*
X175367Y156349D01*
X175416Y156258D01*
X175430Y156244D01*
X175440Y156227D01*
X175519Y156160D01*
X175594Y156088D01*
X175612Y156080D01*
X175627Y156067D01*
X175723Y156028D01*
X175817Y155985D01*
X175837Y155983D01*
X175855Y155975D01*
X176022Y155957D01*
X215440Y155957D01*
X215511Y155968D01*
X215582Y155970D01*
X215631Y155988D01*
X215683Y155996D01*
X215746Y156030D01*
X215813Y156055D01*
X215854Y156087D01*
X215900Y156112D01*
X215950Y156164D01*
X216006Y156208D01*
X216034Y156252D01*
X216070Y156290D01*
X216100Y156355D01*
X216139Y156415D01*
X216151Y156466D01*
X216173Y156513D01*
X216181Y156584D01*
X216199Y156654D01*
X216195Y156706D01*
X216200Y156757D01*
X216185Y156828D01*
X216179Y156899D01*
X216159Y156947D01*
X216148Y156998D01*
X216111Y157059D01*
X216083Y157125D01*
X216038Y157181D01*
X216022Y157209D01*
X216004Y157224D01*
X215978Y157256D01*
X214375Y158859D01*
X214375Y167277D01*
X220327Y173229D01*
X228745Y173229D01*
X234697Y167277D01*
X234697Y158859D01*
X232883Y157045D01*
X232856Y157008D01*
X232822Y156977D01*
X232784Y156908D01*
X232739Y156845D01*
X232726Y156802D01*
X232703Y156761D01*
X232690Y156685D01*
X232667Y156610D01*
X232668Y156564D01*
X232660Y156519D01*
X232671Y156442D01*
X232673Y156364D01*
X232689Y156321D01*
X232695Y156276D01*
X232731Y156207D01*
X232757Y156133D01*
X232786Y156098D01*
X232807Y156057D01*
X232863Y156002D01*
X232911Y155941D01*
X232950Y155917D01*
X232983Y155884D01*
X233102Y155818D01*
X233118Y155808D01*
X233123Y155807D01*
X233130Y155804D01*
X234814Y155106D01*
X260574Y129346D01*
X260590Y129334D01*
X260602Y129319D01*
X260690Y129263D01*
X260773Y129202D01*
X260792Y129197D01*
X260809Y129186D01*
X260910Y129160D01*
X261009Y129130D01*
X261028Y129131D01*
X261048Y129126D01*
X261151Y129134D01*
X261254Y129136D01*
X261273Y129143D01*
X261293Y129145D01*
X261388Y129185D01*
X261485Y129221D01*
X261501Y129233D01*
X261519Y129241D01*
X261650Y129346D01*
X295788Y163484D01*
X295845Y163563D01*
X295907Y163638D01*
X295917Y163662D01*
X295932Y163684D01*
X295960Y163777D01*
X295995Y163868D01*
X295996Y163894D01*
X296004Y163919D01*
X296002Y164016D01*
X296006Y164113D01*
X295998Y164138D01*
X295998Y164165D01*
X295964Y164256D01*
X295937Y164350D01*
X295922Y164371D01*
X295913Y164396D01*
X295852Y164472D01*
X295797Y164552D01*
X295776Y164567D01*
X295760Y164588D01*
X295677Y164640D01*
X295600Y164698D01*
X295575Y164706D01*
X295553Y164721D01*
X295458Y164744D01*
X295366Y164775D01*
X295339Y164774D01*
X295314Y164781D01*
X295217Y164773D01*
X295120Y164772D01*
X295088Y164763D01*
X295069Y164762D01*
X295039Y164749D01*
X294959Y164725D01*
X293408Y164083D01*
X288760Y164083D01*
X284465Y165862D01*
X281178Y169149D01*
X279399Y173444D01*
X279399Y178092D01*
X281178Y182387D01*
X284465Y185674D01*
X288760Y187453D01*
X293408Y187453D01*
X297703Y185674D01*
X300990Y182387D01*
X302769Y178092D01*
X302769Y173444D01*
X302127Y171893D01*
X302104Y171798D01*
X302076Y171706D01*
X302076Y171679D01*
X302070Y171654D01*
X302079Y171557D01*
X302082Y171460D01*
X302091Y171435D01*
X302093Y171409D01*
X302133Y171320D01*
X302166Y171229D01*
X302183Y171208D01*
X302193Y171184D01*
X302259Y171113D01*
X302320Y171037D01*
X302342Y171022D01*
X302360Y171003D01*
X302445Y170956D01*
X302527Y170904D01*
X302552Y170897D01*
X302575Y170885D01*
X302671Y170867D01*
X302766Y170844D01*
X302792Y170846D01*
X302817Y170841D01*
X302914Y170855D01*
X303011Y170863D01*
X303035Y170873D01*
X303061Y170877D01*
X303148Y170921D01*
X303237Y170959D01*
X303263Y170979D01*
X303280Y170988D01*
X303303Y171012D01*
X303368Y171064D01*
X304718Y172413D01*
X304785Y172508D01*
X304855Y172602D01*
X304857Y172608D01*
X304861Y172613D01*
X304895Y172724D01*
X304932Y172836D01*
X304932Y172842D01*
X304933Y172848D01*
X304930Y172965D01*
X304929Y173082D01*
X304927Y173089D01*
X304927Y173094D01*
X304921Y173111D01*
X304883Y173243D01*
X304799Y173444D01*
X304799Y178092D01*
X306578Y182387D01*
X309865Y185674D01*
X313262Y187081D01*
X313301Y187105D01*
X313344Y187121D01*
X313404Y187169D01*
X313471Y187210D01*
X313500Y187246D01*
X313536Y187274D01*
X313578Y187340D01*
X313627Y187400D01*
X313644Y187443D01*
X313669Y187481D01*
X313688Y187557D01*
X313716Y187629D01*
X313718Y187675D01*
X313729Y187720D01*
X313723Y187797D01*
X313726Y187875D01*
X313713Y187919D01*
X313710Y187965D01*
X313679Y188037D01*
X313657Y188111D01*
X313631Y188149D01*
X313613Y188191D01*
X313528Y188298D01*
X313517Y188313D01*
X313513Y188316D01*
X313509Y188322D01*
X311911Y189919D01*
X311911Y240706D01*
X311892Y240821D01*
X311875Y240937D01*
X311873Y240943D01*
X311872Y240949D01*
X311817Y241051D01*
X311764Y241156D01*
X311759Y241161D01*
X311756Y241166D01*
X311672Y241246D01*
X311588Y241328D01*
X311582Y241332D01*
X311578Y241335D01*
X311561Y241343D01*
X311441Y241409D01*
X309865Y242062D01*
X306578Y245349D01*
X304799Y249644D01*
X304799Y254292D01*
X306578Y258587D01*
X309865Y261874D01*
X314160Y263653D01*
X318808Y263653D01*
X323103Y261874D01*
X326390Y258587D01*
X328169Y254292D01*
X328169Y249644D01*
X326390Y245349D01*
X323103Y242062D01*
X322543Y241830D01*
X322443Y241768D01*
X322343Y241709D01*
X322339Y241704D01*
X322334Y241701D01*
X322259Y241611D01*
X322183Y241522D01*
X322181Y241516D01*
X322177Y241511D01*
X322135Y241402D01*
X322091Y241294D01*
X322090Y241286D01*
X322089Y241281D01*
X322088Y241263D01*
X322073Y241127D01*
X322073Y194444D01*
X322087Y194354D01*
X322095Y194263D01*
X322107Y194233D01*
X322112Y194201D01*
X322155Y194120D01*
X322191Y194037D01*
X322217Y194004D01*
X322228Y193984D01*
X322251Y193962D01*
X322296Y193906D01*
X332358Y183843D01*
X332374Y183832D01*
X332387Y183816D01*
X332474Y183760D01*
X332558Y183700D01*
X332577Y183694D01*
X332594Y183683D01*
X332694Y183658D01*
X332793Y183627D01*
X332813Y183628D01*
X332832Y183623D01*
X332935Y183631D01*
X333039Y183634D01*
X333057Y183641D01*
X333077Y183642D01*
X333172Y183683D01*
X333270Y183718D01*
X333285Y183731D01*
X333304Y183738D01*
X333435Y183843D01*
X335265Y185674D01*
X339560Y187453D01*
X344208Y187453D01*
X348503Y185674D01*
X351790Y182387D01*
X353569Y178092D01*
X353569Y173444D01*
X351790Y169149D01*
X348503Y165862D01*
X344208Y164083D01*
X339560Y164083D01*
X337349Y164999D01*
X337305Y165009D01*
X337263Y165029D01*
X337186Y165037D01*
X337110Y165055D01*
X337064Y165051D01*
X337019Y165056D01*
X336942Y165039D01*
X336865Y165032D01*
X336823Y165013D01*
X336778Y165004D01*
X336711Y164964D01*
X336640Y164932D01*
X336606Y164901D01*
X336567Y164877D01*
X336516Y164818D01*
X336459Y164766D01*
X336437Y164725D01*
X336407Y164690D01*
X336378Y164618D01*
X336341Y164550D01*
X336332Y164505D01*
X336315Y164462D01*
X336300Y164326D01*
X336297Y164308D01*
X336298Y164303D01*
X336297Y164296D01*
X336297Y53220D01*
X336311Y53130D01*
X336319Y53039D01*
X336331Y53009D01*
X336336Y52977D01*
X336379Y52896D01*
X336415Y52813D01*
X336441Y52780D01*
X336452Y52760D01*
X336475Y52738D01*
X336520Y52682D01*
X353926Y35276D01*
X353999Y35223D01*
X354069Y35163D01*
X354099Y35151D01*
X354125Y35132D01*
X354212Y35105D01*
X354297Y35071D01*
X354338Y35067D01*
X354360Y35060D01*
X354393Y35061D01*
X354464Y35053D01*
X360825Y35053D01*
X366777Y29101D01*
X366777Y20683D01*
X360825Y14731D01*
X352407Y14731D01*
G37*
%LPD*%
%LPC*%
G36*
X44473Y373779D02*
X44473Y373779D01*
X36177Y376002D01*
X28738Y380297D01*
X22665Y386370D01*
X18370Y393809D01*
X16147Y402105D01*
X16147Y410695D01*
X18370Y418991D01*
X22665Y426430D01*
X28738Y432503D01*
X36177Y436798D01*
X44473Y439021D01*
X53063Y439021D01*
X61359Y436798D01*
X68798Y432503D01*
X74871Y426430D01*
X79166Y418991D01*
X81389Y410695D01*
X81389Y402105D01*
X79166Y393809D01*
X74871Y386370D01*
X68798Y380297D01*
X61359Y376002D01*
X53063Y373779D01*
X44473Y373779D01*
G37*
%LPD*%
%LPC*%
G36*
X450873Y64915D02*
X450873Y64915D01*
X442577Y67138D01*
X435138Y71433D01*
X429065Y77506D01*
X424770Y84945D01*
X422547Y93241D01*
X422547Y101831D01*
X424770Y110127D01*
X429065Y117566D01*
X435138Y123639D01*
X442577Y127934D01*
X450873Y130157D01*
X459463Y130157D01*
X467759Y127934D01*
X475198Y123639D01*
X481271Y117566D01*
X485566Y110127D01*
X487789Y101831D01*
X487789Y93241D01*
X485566Y84945D01*
X481271Y77506D01*
X475198Y71433D01*
X467759Y67138D01*
X459463Y64915D01*
X450873Y64915D01*
G37*
%LPD*%
%LPC*%
G36*
X288760Y240283D02*
X288760Y240283D01*
X284465Y242062D01*
X281178Y245349D01*
X279399Y249644D01*
X279399Y254292D01*
X281178Y258587D01*
X284465Y261874D01*
X286041Y262527D01*
X286141Y262589D01*
X286241Y262648D01*
X286245Y262653D01*
X286250Y262656D01*
X286325Y262747D01*
X286401Y262835D01*
X286403Y262841D01*
X286407Y262846D01*
X286449Y262954D01*
X286493Y263063D01*
X286494Y263071D01*
X286495Y263075D01*
X286496Y263094D01*
X286511Y263230D01*
X286511Y293697D01*
X308937Y316122D01*
X308963Y316159D01*
X308997Y316190D01*
X309035Y316258D01*
X309080Y316321D01*
X309094Y316365D01*
X309116Y316406D01*
X309130Y316482D01*
X309152Y316557D01*
X309151Y316602D01*
X309159Y316648D01*
X309148Y316725D01*
X309146Y316802D01*
X309130Y316846D01*
X309124Y316891D01*
X309088Y316960D01*
X309062Y317033D01*
X309033Y317069D01*
X309012Y317110D01*
X308957Y317165D01*
X308908Y317225D01*
X308869Y317250D01*
X308837Y317282D01*
X308717Y317348D01*
X308701Y317358D01*
X308696Y317360D01*
X308690Y317363D01*
X305293Y318770D01*
X302006Y322057D01*
X300227Y326352D01*
X300227Y331000D01*
X302006Y335295D01*
X305293Y338582D01*
X309588Y340361D01*
X314236Y340361D01*
X318531Y338582D01*
X321818Y335295D01*
X323225Y331898D01*
X323249Y331859D01*
X323265Y331816D01*
X323313Y331756D01*
X323354Y331689D01*
X323390Y331660D01*
X323418Y331624D01*
X323484Y331582D01*
X323544Y331533D01*
X323587Y331516D01*
X323625Y331491D01*
X323701Y331472D01*
X323773Y331444D01*
X323819Y331442D01*
X323864Y331431D01*
X323941Y331437D01*
X324019Y331434D01*
X324063Y331447D01*
X324109Y331450D01*
X324181Y331481D01*
X324255Y331503D01*
X324293Y331529D01*
X324335Y331547D01*
X324442Y331632D01*
X324457Y331643D01*
X324460Y331647D01*
X324466Y331651D01*
X353344Y360530D01*
X353397Y360603D01*
X353457Y360673D01*
X353469Y360703D01*
X353488Y360729D01*
X353515Y360816D01*
X353549Y360901D01*
X353553Y360942D01*
X353560Y360964D01*
X353559Y360997D01*
X353567Y361068D01*
X353567Y416608D01*
X353553Y416698D01*
X353545Y416789D01*
X353533Y416819D01*
X353528Y416851D01*
X353485Y416931D01*
X353449Y417015D01*
X353423Y417047D01*
X353412Y417068D01*
X353389Y417090D01*
X353344Y417146D01*
X348487Y422003D01*
X348487Y430421D01*
X354439Y436373D01*
X362857Y436373D01*
X368809Y430421D01*
X368809Y422003D01*
X363952Y417146D01*
X363899Y417072D01*
X363839Y417003D01*
X363827Y416973D01*
X363808Y416947D01*
X363781Y416860D01*
X363747Y416775D01*
X363743Y416734D01*
X363736Y416711D01*
X363737Y416679D01*
X363729Y416608D01*
X363729Y356543D01*
X296896Y289710D01*
X296843Y289637D01*
X296783Y289567D01*
X296771Y289537D01*
X296752Y289511D01*
X296725Y289424D01*
X296691Y289339D01*
X296687Y289298D01*
X296680Y289276D01*
X296681Y289243D01*
X296673Y289172D01*
X296673Y262809D01*
X296692Y262695D01*
X296709Y262578D01*
X296711Y262573D01*
X296712Y262566D01*
X296767Y262463D01*
X296820Y262359D01*
X296825Y262355D01*
X296828Y262349D01*
X296913Y262268D01*
X296996Y262187D01*
X297002Y262183D01*
X297006Y262180D01*
X297023Y262172D01*
X297143Y262106D01*
X297703Y261874D01*
X300990Y258587D01*
X302769Y254292D01*
X302769Y249644D01*
X300990Y245349D01*
X297703Y242062D01*
X293408Y240283D01*
X288760Y240283D01*
G37*
%LPD*%
%LPC*%
G36*
X170420Y303783D02*
X170420Y303783D01*
X163575Y310628D01*
X163575Y320308D01*
X170420Y327153D01*
X180100Y327153D01*
X185465Y321788D01*
X185539Y321735D01*
X185608Y321675D01*
X185638Y321663D01*
X185665Y321644D01*
X185752Y321617D01*
X185837Y321583D01*
X185877Y321579D01*
X185900Y321572D01*
X185932Y321573D01*
X186003Y321565D01*
X223266Y321565D01*
X223286Y321568D01*
X223305Y321566D01*
X223407Y321588D01*
X223509Y321604D01*
X223526Y321614D01*
X223546Y321618D01*
X223635Y321671D01*
X223726Y321720D01*
X223740Y321734D01*
X223757Y321744D01*
X223824Y321823D01*
X223896Y321898D01*
X223904Y321916D01*
X223917Y321931D01*
X223956Y322027D01*
X223999Y322121D01*
X224001Y322141D01*
X224009Y322159D01*
X224027Y322326D01*
X224027Y337980D01*
X226408Y340361D01*
X245016Y340361D01*
X247397Y337980D01*
X247397Y322326D01*
X247400Y322306D01*
X247398Y322287D01*
X247420Y322185D01*
X247436Y322083D01*
X247446Y322066D01*
X247450Y322046D01*
X247503Y321957D01*
X247552Y321866D01*
X247566Y321852D01*
X247576Y321835D01*
X247655Y321768D01*
X247730Y321696D01*
X247748Y321688D01*
X247763Y321675D01*
X247859Y321636D01*
X247953Y321593D01*
X247973Y321591D01*
X247991Y321583D01*
X248158Y321565D01*
X250271Y321565D01*
X250316Y321572D01*
X250362Y321570D01*
X250437Y321592D01*
X250514Y321604D01*
X250554Y321626D01*
X250598Y321639D01*
X250662Y321683D01*
X250731Y321720D01*
X250763Y321753D01*
X250800Y321779D01*
X250847Y321842D01*
X250900Y321898D01*
X250920Y321940D01*
X250947Y321976D01*
X250971Y322050D01*
X251004Y322121D01*
X251009Y322167D01*
X251023Y322210D01*
X251022Y322288D01*
X251031Y322365D01*
X251021Y322410D01*
X251021Y322456D01*
X250983Y322588D01*
X250979Y322606D01*
X250976Y322610D01*
X250974Y322617D01*
X249427Y326352D01*
X249427Y331000D01*
X251206Y335295D01*
X254493Y338582D01*
X258788Y340361D01*
X263436Y340361D01*
X267731Y338582D01*
X271018Y335295D01*
X272797Y331000D01*
X272797Y326352D01*
X271436Y323067D01*
X271426Y323023D01*
X271407Y322983D01*
X271402Y322933D01*
X271385Y322879D01*
X271386Y322853D01*
X271380Y322828D01*
X271385Y322778D01*
X271380Y322739D01*
X271390Y322694D01*
X271392Y322633D01*
X271401Y322609D01*
X271403Y322583D01*
X271425Y322534D01*
X271432Y322498D01*
X271454Y322462D01*
X271476Y322402D01*
X271492Y322382D01*
X271503Y322358D01*
X271541Y322316D01*
X271559Y322287D01*
X271588Y322262D01*
X271630Y322210D01*
X271652Y322196D01*
X271669Y322177D01*
X271721Y322148D01*
X271746Y322127D01*
X271780Y322113D01*
X271837Y322077D01*
X271862Y322071D01*
X271885Y322058D01*
X271943Y322048D01*
X271974Y322035D01*
X272025Y322030D01*
X272075Y322017D01*
X272101Y322019D01*
X272127Y322015D01*
X272224Y322029D01*
X272320Y322036D01*
X272344Y322046D01*
X272370Y322050D01*
X272382Y322056D01*
X272385Y322057D01*
X272427Y322079D01*
X272457Y322095D01*
X272547Y322133D01*
X272572Y322153D01*
X272590Y322162D01*
X272597Y322169D01*
X272602Y322172D01*
X272622Y322193D01*
X272678Y322237D01*
X275043Y324603D01*
X275111Y324698D01*
X275181Y324791D01*
X275183Y324797D01*
X275187Y324803D01*
X275221Y324914D01*
X275257Y325025D01*
X275257Y325032D01*
X275259Y325038D01*
X275256Y325154D01*
X275255Y325271D01*
X275253Y325278D01*
X275253Y325283D01*
X275246Y325301D01*
X275208Y325432D01*
X274827Y326352D01*
X274827Y331000D01*
X276606Y335295D01*
X279893Y338582D01*
X284188Y340361D01*
X288836Y340361D01*
X293131Y338582D01*
X296418Y335295D01*
X298197Y331000D01*
X298197Y326352D01*
X296418Y322057D01*
X293131Y318770D01*
X288836Y316991D01*
X284188Y316991D01*
X283987Y317075D01*
X283873Y317101D01*
X283760Y317130D01*
X283753Y317129D01*
X283747Y317131D01*
X283631Y317120D01*
X283514Y317111D01*
X283509Y317108D01*
X283502Y317108D01*
X283395Y317060D01*
X283288Y317014D01*
X283282Y317010D01*
X283278Y317008D01*
X283264Y316995D01*
X283157Y316910D01*
X277486Y311238D01*
X275432Y310387D01*
X187019Y310387D01*
X186929Y310373D01*
X186838Y310365D01*
X186808Y310353D01*
X186777Y310348D01*
X186696Y310305D01*
X186612Y310269D01*
X186580Y310243D01*
X186559Y310232D01*
X186537Y310209D01*
X186481Y310164D01*
X180100Y303783D01*
X170420Y303783D01*
G37*
%LPD*%
%LPC*%
G36*
X420840Y13207D02*
X420840Y13207D01*
X416545Y14986D01*
X413258Y18273D01*
X411479Y22568D01*
X411479Y42456D01*
X413258Y46751D01*
X416545Y50038D01*
X420840Y51817D01*
X425488Y51817D01*
X429783Y50038D01*
X433070Y46751D01*
X434849Y42456D01*
X434849Y22568D01*
X433070Y18273D01*
X429783Y14986D01*
X425488Y13207D01*
X420840Y13207D01*
G37*
%LPD*%
%LPC*%
G36*
X43474Y242397D02*
X43474Y242397D01*
X41093Y244778D01*
X41093Y264646D01*
X43474Y267027D01*
X63342Y267027D01*
X65723Y264646D01*
X65723Y244778D01*
X63342Y242397D01*
X43474Y242397D01*
G37*
%LPD*%
%LPC*%
G36*
X43474Y22941D02*
X43474Y22941D01*
X41093Y25322D01*
X41093Y45190D01*
X43474Y47571D01*
X63342Y47571D01*
X65723Y45190D01*
X65723Y25322D01*
X63342Y22941D01*
X43474Y22941D01*
G37*
%LPD*%
%LPC*%
G36*
X332580Y240283D02*
X332580Y240283D01*
X330199Y242664D01*
X330199Y261272D01*
X332580Y263653D01*
X351188Y263653D01*
X353569Y261272D01*
X353569Y242664D01*
X351188Y240283D01*
X332580Y240283D01*
G37*
%LPD*%
%LPC*%
G36*
X225900Y16763D02*
X225900Y16763D01*
X223519Y19144D01*
X223519Y37752D01*
X225900Y40133D01*
X244508Y40133D01*
X246889Y37752D01*
X246889Y19144D01*
X244508Y16763D01*
X225900Y16763D01*
G37*
%LPD*%
%LPC*%
G36*
X50958Y99141D02*
X50958Y99141D01*
X46432Y101016D01*
X42968Y104480D01*
X41093Y109006D01*
X41093Y113906D01*
X42968Y118432D01*
X46432Y121896D01*
X50958Y123771D01*
X55858Y123771D01*
X60384Y121896D01*
X63848Y118432D01*
X65723Y113906D01*
X65723Y109006D01*
X63848Y104480D01*
X60384Y101016D01*
X55858Y99141D01*
X50958Y99141D01*
G37*
%LPD*%
%LPC*%
G36*
X50958Y280497D02*
X50958Y280497D01*
X46432Y282372D01*
X42968Y285836D01*
X41093Y290362D01*
X41093Y295262D01*
X42968Y299788D01*
X46432Y303252D01*
X50958Y305127D01*
X55858Y305127D01*
X60384Y303252D01*
X63848Y299788D01*
X65723Y295262D01*
X65723Y290362D01*
X63848Y285836D01*
X60384Y282372D01*
X55858Y280497D01*
X50958Y280497D01*
G37*
%LPD*%
%LPC*%
G36*
X263360Y240283D02*
X263360Y240283D01*
X259065Y242062D01*
X255778Y245349D01*
X253999Y249644D01*
X253999Y254292D01*
X255778Y258587D01*
X259065Y261874D01*
X263360Y263653D01*
X268008Y263653D01*
X272303Y261874D01*
X275590Y258587D01*
X277369Y254292D01*
X277369Y249644D01*
X275590Y245349D01*
X272303Y242062D01*
X268008Y240283D01*
X263360Y240283D01*
G37*
%LPD*%
%LPC*%
G36*
X263360Y164083D02*
X263360Y164083D01*
X259065Y165862D01*
X255778Y169149D01*
X253999Y173444D01*
X253999Y178092D01*
X255778Y182387D01*
X259065Y185674D01*
X263360Y187453D01*
X268008Y187453D01*
X272303Y185674D01*
X275590Y182387D01*
X277369Y178092D01*
X277369Y173444D01*
X275590Y169149D01*
X272303Y165862D01*
X268008Y164083D01*
X263360Y164083D01*
G37*
%LPD*%
%LPC*%
G36*
X309080Y16763D02*
X309080Y16763D01*
X304785Y18542D01*
X301498Y21829D01*
X299719Y26124D01*
X299719Y30772D01*
X301498Y35067D01*
X304785Y38354D01*
X309080Y40133D01*
X313728Y40133D01*
X318023Y38354D01*
X321310Y35067D01*
X323089Y30772D01*
X323089Y26124D01*
X321310Y21829D01*
X318023Y18542D01*
X313728Y16763D01*
X309080Y16763D01*
G37*
%LPD*%
%LPC*%
G36*
X258788Y393191D02*
X258788Y393191D01*
X254493Y394970D01*
X251206Y398257D01*
X249427Y402552D01*
X249427Y407200D01*
X251206Y411495D01*
X254493Y414782D01*
X258788Y416561D01*
X263436Y416561D01*
X267731Y414782D01*
X271018Y411495D01*
X272797Y407200D01*
X272797Y402552D01*
X271018Y398257D01*
X267731Y394970D01*
X263436Y393191D01*
X258788Y393191D01*
G37*
%LPD*%
%LPC*%
G36*
X284188Y393191D02*
X284188Y393191D01*
X279893Y394970D01*
X276606Y398257D01*
X274827Y402552D01*
X274827Y407200D01*
X276606Y411495D01*
X279893Y414782D01*
X284188Y416561D01*
X288836Y416561D01*
X293131Y414782D01*
X296418Y411495D01*
X298197Y407200D01*
X298197Y402552D01*
X296418Y398257D01*
X293131Y394970D01*
X288836Y393191D01*
X284188Y393191D01*
G37*
%LPD*%
%LPC*%
G36*
X309588Y393191D02*
X309588Y393191D01*
X305293Y394970D01*
X302006Y398257D01*
X300227Y402552D01*
X300227Y407200D01*
X302006Y411495D01*
X305293Y414782D01*
X309588Y416561D01*
X314236Y416561D01*
X318531Y414782D01*
X321818Y411495D01*
X323597Y407200D01*
X323597Y402552D01*
X321818Y398257D01*
X318531Y394970D01*
X314236Y393191D01*
X309588Y393191D01*
G37*
%LPD*%
%LPC*%
G36*
X283680Y92963D02*
X283680Y92963D01*
X279385Y94742D01*
X276098Y98029D01*
X274319Y102324D01*
X274319Y106972D01*
X276098Y111267D01*
X279385Y114554D01*
X283680Y116333D01*
X288328Y116333D01*
X292623Y114554D01*
X295910Y111267D01*
X297689Y106972D01*
X297689Y102324D01*
X295910Y98029D01*
X292623Y94742D01*
X288328Y92963D01*
X283680Y92963D01*
G37*
%LPD*%
%LPC*%
G36*
X309080Y92963D02*
X309080Y92963D01*
X304785Y94742D01*
X301498Y98029D01*
X299719Y102324D01*
X299719Y106972D01*
X301498Y111267D01*
X304785Y114554D01*
X309080Y116333D01*
X313728Y116333D01*
X318023Y114554D01*
X321310Y111267D01*
X323089Y106972D01*
X323089Y102324D01*
X321310Y98029D01*
X318023Y94742D01*
X313728Y92963D01*
X309080Y92963D01*
G37*
%LPD*%
%LPC*%
G36*
X233388Y393191D02*
X233388Y393191D01*
X229093Y394970D01*
X225806Y398257D01*
X224027Y402552D01*
X224027Y407200D01*
X225806Y411495D01*
X229093Y414782D01*
X233388Y416561D01*
X238036Y416561D01*
X242331Y414782D01*
X245618Y411495D01*
X247397Y407200D01*
X247397Y402552D01*
X245618Y398257D01*
X242331Y394970D01*
X238036Y393191D01*
X233388Y393191D01*
G37*
%LPD*%
%LPC*%
G36*
X175816Y334517D02*
X175816Y334517D01*
X169417Y340916D01*
X169417Y349964D01*
X175816Y356363D01*
X184864Y356363D01*
X191263Y349964D01*
X191263Y340916D01*
X184864Y334517D01*
X175816Y334517D01*
G37*
%LPD*%
%LPC*%
G36*
X183944Y20573D02*
X183944Y20573D01*
X177545Y26972D01*
X177545Y36020D01*
X183944Y42419D01*
X192992Y42419D01*
X199391Y36020D01*
X199391Y26972D01*
X192992Y20573D01*
X183944Y20573D01*
G37*
%LPD*%
%LPC*%
G36*
X440992Y252729D02*
X440992Y252729D01*
X434593Y259128D01*
X434593Y268176D01*
X440992Y274575D01*
X450040Y274575D01*
X456439Y268176D01*
X456439Y259128D01*
X450040Y252729D01*
X440992Y252729D01*
G37*
%LPD*%
%LPC*%
G36*
X384096Y251713D02*
X384096Y251713D01*
X377697Y258112D01*
X377697Y267160D01*
X384096Y273559D01*
X393144Y273559D01*
X399543Y267160D01*
X399543Y258112D01*
X393144Y251713D01*
X384096Y251713D01*
G37*
%LPD*%
%LPC*%
G36*
X382887Y416051D02*
X382887Y416051D01*
X376935Y422003D01*
X376935Y430421D01*
X382887Y436373D01*
X391305Y436373D01*
X397257Y430421D01*
X397257Y422003D01*
X391305Y416051D01*
X382887Y416051D01*
G37*
%LPD*%
%LPC*%
G36*
X352407Y116331D02*
X352407Y116331D01*
X346455Y122283D01*
X346455Y130701D01*
X352407Y136653D01*
X360825Y136653D01*
X366777Y130701D01*
X366777Y122283D01*
X360825Y116331D01*
X352407Y116331D01*
G37*
%LPD*%
%LPC*%
G36*
X386951Y12699D02*
X386951Y12699D01*
X380999Y18651D01*
X380999Y27069D01*
X386951Y33021D01*
X395369Y33021D01*
X401321Y27069D01*
X401321Y18651D01*
X395369Y12699D01*
X386951Y12699D01*
G37*
%LPD*%
%LPC*%
G36*
X354439Y314451D02*
X354439Y314451D01*
X348487Y320403D01*
X348487Y328821D01*
X354439Y334773D01*
X362857Y334773D01*
X368809Y328821D01*
X368809Y320403D01*
X362857Y314451D01*
X354439Y314451D01*
G37*
%LPD*%
%LPC*%
G36*
X386951Y114299D02*
X386951Y114299D01*
X380999Y120251D01*
X380999Y128669D01*
X386951Y134621D01*
X395369Y134621D01*
X401321Y128669D01*
X401321Y120251D01*
X395369Y114299D01*
X386951Y114299D01*
G37*
%LPD*%
%LPC*%
G36*
X323451Y279399D02*
X323451Y279399D01*
X317499Y285351D01*
X317499Y293769D01*
X323451Y299721D01*
X331869Y299721D01*
X337821Y293769D01*
X337821Y285351D01*
X331869Y279399D01*
X323451Y279399D01*
G37*
%LPD*%
%LPC*%
G36*
X221851Y279399D02*
X221851Y279399D01*
X215899Y285351D01*
X215899Y293769D01*
X221851Y299721D01*
X230269Y299721D01*
X236221Y293769D01*
X236221Y285351D01*
X230269Y279399D01*
X221851Y279399D01*
G37*
%LPD*%
%LPC*%
G36*
X220327Y254507D02*
X220327Y254507D01*
X214375Y260459D01*
X214375Y268877D01*
X220327Y274829D01*
X228745Y274829D01*
X234697Y268877D01*
X234697Y260459D01*
X228745Y254507D01*
X220327Y254507D01*
G37*
%LPD*%
%LPC*%
G36*
X450087Y34035D02*
X450087Y34035D01*
X450087Y50178D01*
X450943Y50043D01*
X452464Y49548D01*
X453889Y48822D01*
X455183Y47882D01*
X456314Y46751D01*
X457254Y45457D01*
X457980Y44032D01*
X458475Y42511D01*
X458725Y40932D01*
X458725Y34035D01*
X450087Y34035D01*
G37*
%LPD*%
%LPC*%
G36*
X450087Y30989D02*
X450087Y30989D01*
X458725Y30989D01*
X458725Y24092D01*
X458475Y22513D01*
X457980Y20992D01*
X457254Y19567D01*
X456314Y18273D01*
X455183Y17142D01*
X453889Y16202D01*
X452464Y15476D01*
X450943Y14981D01*
X450087Y14846D01*
X450087Y30989D01*
G37*
%LPD*%
%LPC*%
G36*
X438403Y34035D02*
X438403Y34035D01*
X438403Y40932D01*
X438653Y42511D01*
X439148Y44032D01*
X439874Y45457D01*
X440814Y46751D01*
X441945Y47882D01*
X443239Y48822D01*
X444664Y49548D01*
X446185Y50043D01*
X447041Y50178D01*
X447041Y34035D01*
X438403Y34035D01*
G37*
%LPD*%
%LPC*%
G36*
X446185Y14981D02*
X446185Y14981D01*
X444664Y15476D01*
X443239Y16202D01*
X441945Y17142D01*
X440814Y18273D01*
X439874Y19567D01*
X439148Y20992D01*
X438653Y22513D01*
X438403Y24092D01*
X438403Y30989D01*
X447041Y30989D01*
X447041Y14846D01*
X446185Y14981D01*
G37*
%LPD*%
%LPC*%
G36*
X54931Y74879D02*
X54931Y74879D01*
X54931Y84040D01*
X55935Y83881D01*
X57550Y83356D01*
X59063Y82585D01*
X60438Y81587D01*
X61639Y80386D01*
X62637Y79011D01*
X63408Y77498D01*
X63933Y75883D01*
X64092Y74879D01*
X54931Y74879D01*
G37*
%LPD*%
%LPC*%
G36*
X54931Y71833D02*
X54931Y71833D01*
X64092Y71833D01*
X63933Y70829D01*
X63408Y69214D01*
X62637Y67701D01*
X61639Y66326D01*
X60438Y65125D01*
X59063Y64127D01*
X57550Y63356D01*
X55935Y62831D01*
X54931Y62672D01*
X54931Y71833D01*
G37*
%LPD*%
%LPC*%
G36*
X42724Y74879D02*
X42724Y74879D01*
X42883Y75883D01*
X43408Y77498D01*
X44179Y79011D01*
X45177Y80386D01*
X46378Y81587D01*
X47753Y82585D01*
X49266Y83356D01*
X50881Y83881D01*
X51885Y84040D01*
X51885Y74879D01*
X42724Y74879D01*
G37*
%LPD*%
%LPC*%
G36*
X50881Y62831D02*
X50881Y62831D01*
X49266Y63356D01*
X47753Y64127D01*
X46378Y65125D01*
X45177Y66326D01*
X44179Y67701D01*
X43408Y69214D01*
X42883Y70829D01*
X42724Y71833D01*
X51885Y71833D01*
X51885Y62672D01*
X50881Y62831D01*
G37*
%LPD*%
%LPC*%
G36*
X447039Y188975D02*
X447039Y188975D01*
X447039Y196851D01*
X449409Y196851D01*
X454915Y191345D01*
X454915Y188975D01*
X447039Y188975D01*
G37*
%LPD*%
%LPC*%
G36*
X133095Y422147D02*
X133095Y422147D01*
X133095Y430023D01*
X135465Y430023D01*
X140971Y424517D01*
X140971Y422147D01*
X133095Y422147D01*
G37*
%LPD*%
%LPC*%
G36*
X181863Y423163D02*
X181863Y423163D01*
X181863Y431039D01*
X184233Y431039D01*
X189739Y425533D01*
X189739Y423163D01*
X181863Y423163D01*
G37*
%LPD*%
%LPC*%
G36*
X390143Y187959D02*
X390143Y187959D01*
X390143Y195835D01*
X392513Y195835D01*
X398019Y190329D01*
X398019Y187959D01*
X390143Y187959D01*
G37*
%LPD*%
%LPC*%
G36*
X170941Y423163D02*
X170941Y423163D01*
X170941Y425533D01*
X176447Y431039D01*
X178817Y431039D01*
X178817Y423163D01*
X170941Y423163D01*
G37*
%LPD*%
%LPC*%
G36*
X122173Y422147D02*
X122173Y422147D01*
X122173Y424517D01*
X127679Y430023D01*
X130049Y430023D01*
X130049Y422147D01*
X122173Y422147D01*
G37*
%LPD*%
%LPC*%
G36*
X436117Y188975D02*
X436117Y188975D01*
X436117Y191345D01*
X441623Y196851D01*
X443993Y196851D01*
X443993Y188975D01*
X436117Y188975D01*
G37*
%LPD*%
%LPC*%
G36*
X447039Y178053D02*
X447039Y178053D01*
X447039Y185929D01*
X454915Y185929D01*
X454915Y183559D01*
X449409Y178053D01*
X447039Y178053D01*
G37*
%LPD*%
%LPC*%
G36*
X390143Y177037D02*
X390143Y177037D01*
X390143Y184913D01*
X398019Y184913D01*
X398019Y182543D01*
X392513Y177037D01*
X390143Y177037D01*
G37*
%LPD*%
%LPC*%
G36*
X122173Y108711D02*
X122173Y108711D01*
X122173Y111081D01*
X127679Y116587D01*
X130049Y116587D01*
X130049Y108711D01*
X122173Y108711D01*
G37*
%LPD*%
%LPC*%
G36*
X379221Y187959D02*
X379221Y187959D01*
X379221Y190329D01*
X384727Y195835D01*
X387097Y195835D01*
X387097Y187959D01*
X379221Y187959D01*
G37*
%LPD*%
%LPC*%
G36*
X133095Y411225D02*
X133095Y411225D01*
X133095Y419101D01*
X140971Y419101D01*
X140971Y416731D01*
X135465Y411225D01*
X133095Y411225D01*
G37*
%LPD*%
%LPC*%
G36*
X181863Y412241D02*
X181863Y412241D01*
X181863Y420117D01*
X189739Y420117D01*
X189739Y417747D01*
X184233Y412241D01*
X181863Y412241D01*
G37*
%LPD*%
%LPC*%
G36*
X441623Y178053D02*
X441623Y178053D01*
X436117Y183559D01*
X436117Y185929D01*
X443993Y185929D01*
X443993Y178053D01*
X441623Y178053D01*
G37*
%LPD*%
%LPC*%
G36*
X384727Y177037D02*
X384727Y177037D01*
X379221Y182543D01*
X379221Y184913D01*
X387097Y184913D01*
X387097Y177037D01*
X384727Y177037D01*
G37*
%LPD*%
%LPC*%
G36*
X184575Y98297D02*
X184575Y98297D01*
X179069Y103803D01*
X179069Y106173D01*
X186945Y106173D01*
X186945Y98297D01*
X184575Y98297D01*
G37*
%LPD*%
%LPC*%
G36*
X127679Y411225D02*
X127679Y411225D01*
X122173Y416731D01*
X122173Y419101D01*
X130049Y419101D01*
X130049Y411225D01*
X127679Y411225D01*
G37*
%LPD*%
%LPC*%
G36*
X176447Y412241D02*
X176447Y412241D01*
X170941Y417747D01*
X170941Y420117D01*
X178817Y420117D01*
X178817Y412241D01*
X176447Y412241D01*
G37*
%LPD*%
%LPC*%
G36*
X124459Y141223D02*
X124459Y141223D01*
X124459Y148337D01*
X126513Y148337D01*
X131573Y143277D01*
X131573Y141223D01*
X124459Y141223D01*
G37*
%LPD*%
%LPC*%
G36*
X388619Y326135D02*
X388619Y326135D01*
X388619Y333249D01*
X390673Y333249D01*
X395733Y328189D01*
X395733Y326135D01*
X388619Y326135D01*
G37*
%LPD*%
%LPC*%
G36*
X378459Y326135D02*
X378459Y326135D01*
X378459Y328189D01*
X383519Y333249D01*
X385573Y333249D01*
X385573Y326135D01*
X378459Y326135D01*
G37*
%LPD*%
%LPC*%
G36*
X388619Y315975D02*
X388619Y315975D01*
X388619Y323089D01*
X395733Y323089D01*
X395733Y321035D01*
X390673Y315975D01*
X388619Y315975D01*
G37*
%LPD*%
%LPC*%
G36*
X124459Y131063D02*
X124459Y131063D01*
X124459Y138177D01*
X131573Y138177D01*
X131573Y136123D01*
X126513Y131063D01*
X124459Y131063D01*
G37*
%LPD*%
%LPC*%
G36*
X114299Y141223D02*
X114299Y141223D01*
X114299Y143277D01*
X119359Y148337D01*
X121413Y148337D01*
X121413Y141223D01*
X114299Y141223D01*
G37*
%LPD*%
%LPC*%
G36*
X383519Y315975D02*
X383519Y315975D01*
X378459Y321035D01*
X378459Y323089D01*
X385573Y323089D01*
X385573Y315975D01*
X383519Y315975D01*
G37*
%LPD*%
%LPC*%
G36*
X119359Y131063D02*
X119359Y131063D01*
X114299Y136123D01*
X114299Y138177D01*
X121413Y138177D01*
X121413Y131063D01*
X119359Y131063D01*
G37*
%LPD*%
%LPC*%
G36*
X445515Y187451D02*
X445515Y187451D01*
X445515Y187453D01*
X445517Y187453D01*
X445517Y187451D01*
X445515Y187451D01*
G37*
%LPD*%
%LPC*%
G36*
X388619Y186435D02*
X388619Y186435D01*
X388619Y186437D01*
X388621Y186437D01*
X388621Y186435D01*
X388619Y186435D01*
G37*
%LPD*%
%LPC*%
G36*
X53407Y73355D02*
X53407Y73355D01*
X53407Y73357D01*
X53409Y73357D01*
X53409Y73355D01*
X53407Y73355D01*
G37*
%LPD*%
%LPC*%
G36*
X131571Y420623D02*
X131571Y420623D01*
X131571Y420625D01*
X131573Y420625D01*
X131573Y420623D01*
X131571Y420623D01*
G37*
%LPD*%
%LPC*%
G36*
X122935Y139699D02*
X122935Y139699D01*
X122935Y139701D01*
X122937Y139701D01*
X122937Y139699D01*
X122935Y139699D01*
G37*
%LPD*%
%LPC*%
G36*
X180339Y421639D02*
X180339Y421639D01*
X180339Y421641D01*
X180341Y421641D01*
X180341Y421639D01*
X180339Y421639D01*
G37*
%LPD*%
%LPC*%
G36*
X448563Y32511D02*
X448563Y32511D01*
X448563Y32513D01*
X448565Y32513D01*
X448565Y32511D01*
X448563Y32511D01*
G37*
%LPD*%
%LPC*%
G36*
X387095Y324611D02*
X387095Y324611D01*
X387095Y324613D01*
X387097Y324613D01*
X387097Y324611D01*
X387095Y324611D01*
G37*
%LPD*%
D10*
X188468Y31496D03*
X188468Y107696D03*
X131572Y30988D03*
X131572Y107188D03*
X180340Y345440D03*
X180340Y421640D03*
D11*
X388620Y262636D03*
X388620Y186436D03*
D10*
X131572Y344424D03*
X131572Y420624D03*
D11*
X445516Y263652D03*
X445516Y187452D03*
D12*
X226060Y289560D03*
X327660Y289560D03*
X213868Y137160D03*
X315468Y137160D03*
D13*
X358648Y324612D03*
X358648Y426212D03*
D14*
X387096Y426212D03*
X387096Y324612D03*
X356616Y126492D03*
X356616Y24892D03*
D13*
X391160Y22860D03*
X391160Y124460D03*
D15*
X175260Y137668D03*
X175260Y315468D03*
D14*
X122936Y241300D03*
X122936Y139700D03*
X224536Y264668D03*
X224536Y163068D03*
D16*
X235712Y328676D03*
D17*
X261112Y328676D03*
X286512Y328676D03*
X311912Y328676D03*
X311912Y404876D03*
X286512Y404876D03*
X261112Y404876D03*
X235712Y404876D03*
D16*
X235204Y28448D03*
D17*
X260604Y28448D03*
X286004Y28448D03*
X311404Y28448D03*
X311404Y104648D03*
X286004Y104648D03*
X260604Y104648D03*
X235204Y104648D03*
D16*
X341884Y251968D03*
D17*
X316484Y251968D03*
X291084Y251968D03*
X265684Y251968D03*
X265684Y175768D03*
X291084Y175768D03*
X316484Y175768D03*
X341884Y175768D03*
D18*
X423164Y40132D02*
X423164Y24892D01*
X448564Y24892D02*
X448564Y40132D01*
D19*
X53408Y254712D03*
D20*
X53408Y292812D03*
D19*
X53408Y35256D03*
D20*
X53408Y73356D03*
X53408Y111456D03*
D21*
X53848Y74168D02*
X98552Y74168D01*
X131572Y107188D01*
X53848Y74168D02*
X53408Y73356D01*
X387096Y277368D02*
X387096Y324612D01*
X387096Y277368D02*
X376936Y267208D01*
X376936Y198120D01*
X388620Y186436D01*
X389128Y187960D02*
X420624Y187960D01*
X445008Y187960D01*
X445516Y187452D01*
X389128Y187960D02*
X388620Y186436D01*
X448056Y55880D02*
X448056Y32512D01*
X448056Y55880D02*
X420624Y83312D01*
X420624Y187960D01*
X448056Y32512D02*
X448564Y32512D01*
X122936Y139700D02*
X122936Y225552D01*
X111760Y236728D01*
X111760Y401320D01*
X131064Y420624D01*
X131572Y420624D01*
X175768Y315976D02*
X274320Y315976D01*
X286512Y328168D01*
X175768Y315976D02*
X175260Y315468D01*
X286512Y328168D02*
X286512Y328676D01*
X175768Y138176D02*
X285496Y28448D01*
X286004Y28448D01*
X175768Y138176D02*
X175260Y137668D01*
D22*
X291592Y251968D02*
X291592Y291592D01*
X358648Y358648D01*
X358648Y426212D01*
X291592Y251968D02*
X291084Y251968D01*
X316992Y251968D02*
X316992Y192024D01*
X331216Y177800D01*
X331216Y50800D01*
X356616Y25400D01*
X316992Y251968D02*
X316484Y251968D01*
X356616Y25400D02*
X356616Y24892D01*
D21*
X261112Y104648D02*
X261112Y120904D01*
X315976Y175768D01*
X261112Y104648D02*
X260604Y104648D01*
X315976Y175768D02*
X316484Y175768D01*
X132080Y91440D02*
X132080Y31496D01*
X132080Y91440D02*
X162560Y121920D01*
X162560Y142240D01*
X170688Y150368D01*
X231648Y150368D01*
X261112Y120904D01*
X132080Y31496D02*
X131572Y30988D01*
X132080Y247904D02*
X132080Y344424D01*
X132080Y247904D02*
X169672Y210312D01*
X169672Y151384D01*
X132080Y344424D02*
X131572Y344424D01*
X169672Y151384D02*
X170688Y150368D01*
M02*
