G04 EAGLE Gerber RS-274X export*
G75*
%MOMM*%
%FSLAX34Y34*%
%LPD*%
%INTop Copper*%
%IPPOS*%
%AMOC8*
5,1,8,0,0,1.08239X$1,22.5*%
G01*
%ADD10P,1.484606X8X112.500000*%
%ADD11P,1.484606X8X292.500000*%
%ADD12P,1.319650X8X22.500000*%
%ADD13P,1.319650X8X112.500000*%
%ADD14P,1.319650X8X292.500000*%
%ADD15P,1.649562X8X112.500000*%
%ADD16R,1.524000X1.524000*%
%ADD17C,1.524000*%
%ADD18C,1.524000*%
%ADD19R,1.650000X1.650000*%
%ADD20C,1.650000*%
%ADD21C,0.304800*%
%ADD22C,0.203200*%

G36*
X491638Y7624D02*
X491638Y7624D01*
X491657Y7622D01*
X491759Y7644D01*
X491861Y7660D01*
X491878Y7670D01*
X491898Y7674D01*
X491987Y7727D01*
X492078Y7776D01*
X492092Y7790D01*
X492109Y7800D01*
X492176Y7879D01*
X492248Y7954D01*
X492256Y7972D01*
X492269Y7987D01*
X492308Y8083D01*
X492351Y8177D01*
X492353Y8197D01*
X492361Y8215D01*
X492379Y8382D01*
X492379Y441618D01*
X492376Y441638D01*
X492378Y441657D01*
X492356Y441759D01*
X492340Y441861D01*
X492330Y441878D01*
X492326Y441898D01*
X492273Y441987D01*
X492224Y442078D01*
X492210Y442092D01*
X492200Y442109D01*
X492121Y442176D01*
X492046Y442248D01*
X492028Y442256D01*
X492013Y442269D01*
X491917Y442308D01*
X491823Y442351D01*
X491803Y442353D01*
X491785Y442361D01*
X491618Y442379D01*
X8382Y442379D01*
X8362Y442376D01*
X8343Y442378D01*
X8241Y442356D01*
X8139Y442340D01*
X8122Y442330D01*
X8102Y442326D01*
X8013Y442273D01*
X7922Y442224D01*
X7908Y442210D01*
X7891Y442200D01*
X7824Y442121D01*
X7752Y442046D01*
X7744Y442028D01*
X7731Y442013D01*
X7692Y441917D01*
X7649Y441823D01*
X7647Y441803D01*
X7639Y441785D01*
X7621Y441618D01*
X7621Y8382D01*
X7624Y8362D01*
X7622Y8343D01*
X7644Y8241D01*
X7660Y8139D01*
X7670Y8122D01*
X7674Y8102D01*
X7727Y8013D01*
X7776Y7922D01*
X7790Y7908D01*
X7800Y7891D01*
X7879Y7824D01*
X7954Y7752D01*
X7972Y7744D01*
X7987Y7731D01*
X8083Y7692D01*
X8177Y7649D01*
X8197Y7647D01*
X8215Y7639D01*
X8382Y7621D01*
X491618Y7621D01*
X491638Y7624D01*
G37*
%LPC*%
G36*
X224440Y10667D02*
X224440Y10667D01*
X222386Y11518D01*
X208220Y25684D01*
X208146Y25737D01*
X208077Y25797D01*
X208046Y25809D01*
X208020Y25828D01*
X207933Y25855D01*
X207848Y25889D01*
X207808Y25893D01*
X207785Y25900D01*
X207753Y25899D01*
X207682Y25907D01*
X198642Y25907D01*
X198552Y25893D01*
X198461Y25885D01*
X198431Y25873D01*
X198399Y25868D01*
X198318Y25825D01*
X198234Y25789D01*
X198202Y25763D01*
X198182Y25752D01*
X198167Y25737D01*
X198165Y25736D01*
X198156Y25726D01*
X198103Y25684D01*
X192992Y20573D01*
X183944Y20573D01*
X177545Y26972D01*
X177545Y34708D01*
X177531Y34798D01*
X177523Y34889D01*
X177511Y34919D01*
X177506Y34950D01*
X177463Y35031D01*
X177427Y35115D01*
X177401Y35147D01*
X177390Y35168D01*
X177367Y35190D01*
X177322Y35246D01*
X156453Y56115D01*
X154667Y57901D01*
X107636Y104932D01*
X107562Y104985D01*
X107493Y105045D01*
X107462Y105057D01*
X107436Y105076D01*
X107349Y105103D01*
X107264Y105137D01*
X107224Y105141D01*
X107201Y105148D01*
X107169Y105147D01*
X107098Y105155D01*
X64636Y105155D01*
X64522Y105137D01*
X64405Y105119D01*
X64400Y105117D01*
X64393Y105116D01*
X64291Y105061D01*
X64186Y105008D01*
X64182Y105003D01*
X64176Y105000D01*
X64096Y104916D01*
X64014Y104832D01*
X64010Y104826D01*
X64007Y104822D01*
X63999Y104805D01*
X63933Y104685D01*
X63848Y104480D01*
X60384Y101016D01*
X55858Y99141D01*
X50958Y99141D01*
X46432Y101016D01*
X42968Y104480D01*
X41093Y109006D01*
X41093Y113906D01*
X42968Y118432D01*
X46432Y121896D01*
X50958Y123771D01*
X55858Y123771D01*
X60384Y121896D01*
X63848Y118432D01*
X64523Y116803D01*
X64584Y116703D01*
X64644Y116603D01*
X64649Y116599D01*
X64652Y116594D01*
X64742Y116519D01*
X64831Y116443D01*
X64837Y116441D01*
X64842Y116437D01*
X64950Y116395D01*
X65059Y116351D01*
X65067Y116350D01*
X65071Y116349D01*
X65090Y116348D01*
X65226Y116333D01*
X110840Y116333D01*
X112894Y115482D01*
X120874Y107502D01*
X120932Y107460D01*
X120984Y107411D01*
X121031Y107389D01*
X121073Y107358D01*
X121142Y107337D01*
X121207Y107307D01*
X121259Y107301D01*
X121309Y107286D01*
X121380Y107288D01*
X121451Y107280D01*
X121502Y107291D01*
X121554Y107292D01*
X121622Y107317D01*
X121692Y107332D01*
X121737Y107359D01*
X121785Y107377D01*
X121841Y107422D01*
X121903Y107458D01*
X121937Y107498D01*
X121977Y107531D01*
X122016Y107591D01*
X122063Y107645D01*
X122082Y107694D01*
X122110Y107737D01*
X122128Y107807D01*
X122155Y107873D01*
X122163Y107945D01*
X122171Y107976D01*
X122169Y107999D01*
X122173Y108040D01*
X122173Y111081D01*
X127679Y116587D01*
X130049Y116587D01*
X130049Y107950D01*
X130052Y107930D01*
X130050Y107911D01*
X130072Y107809D01*
X130089Y107707D01*
X130098Y107690D01*
X130102Y107670D01*
X130155Y107581D01*
X130204Y107490D01*
X130218Y107476D01*
X130228Y107459D01*
X130307Y107392D01*
X130382Y107321D01*
X130400Y107312D01*
X130415Y107299D01*
X130511Y107261D01*
X130605Y107217D01*
X130625Y107215D01*
X130643Y107207D01*
X130810Y107189D01*
X131573Y107189D01*
X131573Y106426D01*
X131576Y106406D01*
X131574Y106387D01*
X131596Y106285D01*
X131613Y106183D01*
X131622Y106166D01*
X131626Y106146D01*
X131679Y106057D01*
X131728Y105966D01*
X131742Y105952D01*
X131752Y105935D01*
X131831Y105868D01*
X131906Y105797D01*
X131924Y105788D01*
X131939Y105775D01*
X132035Y105736D01*
X132129Y105693D01*
X132149Y105691D01*
X132167Y105683D01*
X132334Y105665D01*
X140971Y105665D01*
X140971Y103295D01*
X135465Y97789D01*
X132424Y97789D01*
X132353Y97778D01*
X132282Y97776D01*
X132233Y97758D01*
X132181Y97750D01*
X132118Y97716D01*
X132051Y97691D01*
X132010Y97659D01*
X131964Y97634D01*
X131915Y97583D01*
X131859Y97538D01*
X131831Y97494D01*
X131795Y97456D01*
X131765Y97391D01*
X131726Y97331D01*
X131713Y97280D01*
X131691Y97233D01*
X131683Y97162D01*
X131666Y97092D01*
X131670Y97040D01*
X131664Y96989D01*
X131679Y96918D01*
X131685Y96847D01*
X131705Y96799D01*
X131716Y96748D01*
X131753Y96687D01*
X131781Y96621D01*
X131826Y96565D01*
X131842Y96537D01*
X131860Y96522D01*
X131886Y96490D01*
X158974Y69402D01*
X158990Y69390D01*
X159002Y69375D01*
X159090Y69319D01*
X159173Y69258D01*
X159192Y69253D01*
X159209Y69242D01*
X159310Y69216D01*
X159409Y69186D01*
X159428Y69187D01*
X159448Y69182D01*
X159551Y69190D01*
X159654Y69192D01*
X159673Y69199D01*
X159693Y69201D01*
X159788Y69241D01*
X159885Y69277D01*
X159901Y69289D01*
X159919Y69297D01*
X160050Y69402D01*
X187646Y96998D01*
X187688Y97056D01*
X187737Y97108D01*
X187759Y97155D01*
X187790Y97197D01*
X187811Y97266D01*
X187841Y97331D01*
X187847Y97383D01*
X187862Y97433D01*
X187860Y97504D01*
X187868Y97575D01*
X187857Y97626D01*
X187856Y97678D01*
X187831Y97746D01*
X187816Y97816D01*
X187789Y97860D01*
X187771Y97909D01*
X187726Y97965D01*
X187690Y98027D01*
X187650Y98061D01*
X187617Y98101D01*
X187557Y98140D01*
X187503Y98187D01*
X187454Y98206D01*
X187411Y98234D01*
X187341Y98252D01*
X187274Y98279D01*
X187203Y98287D01*
X187172Y98295D01*
X187149Y98293D01*
X187108Y98297D01*
X184575Y98297D01*
X179069Y103803D01*
X179069Y106173D01*
X187706Y106173D01*
X187726Y106176D01*
X187745Y106174D01*
X187847Y106196D01*
X187949Y106213D01*
X187966Y106222D01*
X187986Y106226D01*
X188075Y106279D01*
X188166Y106328D01*
X188180Y106342D01*
X188197Y106352D01*
X188264Y106431D01*
X188335Y106506D01*
X188344Y106524D01*
X188357Y106539D01*
X188395Y106635D01*
X188439Y106729D01*
X188441Y106749D01*
X188449Y106767D01*
X188467Y106934D01*
X188467Y107697D01*
X189230Y107697D01*
X189250Y107700D01*
X189269Y107698D01*
X189371Y107720D01*
X189473Y107737D01*
X189490Y107746D01*
X189510Y107750D01*
X189599Y107803D01*
X189690Y107852D01*
X189704Y107866D01*
X189721Y107876D01*
X189788Y107955D01*
X189859Y108030D01*
X189868Y108048D01*
X189881Y108063D01*
X189920Y108159D01*
X189963Y108253D01*
X189965Y108273D01*
X189973Y108291D01*
X189991Y108458D01*
X189991Y117095D01*
X192361Y117095D01*
X193264Y116192D01*
X193322Y116150D01*
X193374Y116101D01*
X193421Y116079D01*
X193463Y116049D01*
X193532Y116027D01*
X193597Y115997D01*
X193649Y115991D01*
X193699Y115976D01*
X193770Y115978D01*
X193841Y115970D01*
X193892Y115981D01*
X193944Y115983D01*
X194012Y116007D01*
X194082Y116022D01*
X194127Y116049D01*
X194175Y116067D01*
X194231Y116112D01*
X194293Y116149D01*
X194327Y116188D01*
X194367Y116221D01*
X194406Y116281D01*
X194453Y116335D01*
X194472Y116384D01*
X194500Y116428D01*
X194518Y116497D01*
X194545Y116564D01*
X194553Y116635D01*
X194561Y116666D01*
X194559Y116689D01*
X194563Y116730D01*
X194563Y155544D01*
X195414Y157598D01*
X259364Y221548D01*
X259417Y221622D01*
X259477Y221691D01*
X259489Y221722D01*
X259508Y221748D01*
X259535Y221835D01*
X259569Y221920D01*
X259573Y221960D01*
X259580Y221983D01*
X259579Y222015D01*
X259587Y222086D01*
X259587Y241337D01*
X259585Y241352D01*
X259586Y241364D01*
X259573Y241426D01*
X259568Y241452D01*
X259551Y241568D01*
X259549Y241574D01*
X259548Y241580D01*
X259493Y241683D01*
X259440Y241787D01*
X259435Y241792D01*
X259432Y241797D01*
X259347Y241878D01*
X259264Y241960D01*
X259258Y241963D01*
X259254Y241967D01*
X259237Y241975D01*
X259117Y242041D01*
X259065Y242062D01*
X255778Y245349D01*
X253999Y249644D01*
X253999Y254292D01*
X255778Y258587D01*
X259065Y261874D01*
X263360Y263653D01*
X268008Y263653D01*
X268928Y263272D01*
X269041Y263245D01*
X269155Y263217D01*
X269161Y263217D01*
X269167Y263216D01*
X269284Y263227D01*
X269400Y263236D01*
X269406Y263238D01*
X269412Y263239D01*
X269520Y263287D01*
X269626Y263332D01*
X269632Y263337D01*
X269637Y263339D01*
X269650Y263352D01*
X269757Y263437D01*
X275218Y268898D01*
X277272Y269749D01*
X306578Y269749D01*
X306598Y269752D01*
X306617Y269750D01*
X306719Y269772D01*
X306821Y269788D01*
X306838Y269798D01*
X306858Y269802D01*
X306947Y269855D01*
X307038Y269904D01*
X307052Y269918D01*
X307069Y269928D01*
X307136Y270007D01*
X307208Y270082D01*
X307216Y270100D01*
X307229Y270115D01*
X307268Y270211D01*
X307311Y270305D01*
X307313Y270325D01*
X307321Y270343D01*
X307339Y270510D01*
X307339Y317414D01*
X307320Y317529D01*
X307303Y317645D01*
X307301Y317651D01*
X307300Y317657D01*
X307245Y317759D01*
X307192Y317864D01*
X307187Y317869D01*
X307184Y317874D01*
X307100Y317954D01*
X307016Y318036D01*
X307010Y318040D01*
X307006Y318043D01*
X306989Y318051D01*
X306869Y318117D01*
X305293Y318770D01*
X302006Y322057D01*
X300227Y326352D01*
X300227Y331000D01*
X300608Y331920D01*
X300635Y332033D01*
X300663Y332147D01*
X300663Y332153D01*
X300664Y332159D01*
X300653Y332276D01*
X300644Y332392D01*
X300642Y332398D01*
X300641Y332404D01*
X300593Y332512D01*
X300548Y332618D01*
X300543Y332624D01*
X300541Y332629D01*
X300528Y332643D01*
X300443Y332749D01*
X298078Y335115D01*
X297999Y335171D01*
X297924Y335234D01*
X297899Y335243D01*
X297878Y335258D01*
X297785Y335287D01*
X297694Y335322D01*
X297668Y335323D01*
X297643Y335331D01*
X297546Y335328D01*
X297448Y335332D01*
X297423Y335325D01*
X297397Y335324D01*
X297305Y335291D01*
X297212Y335264D01*
X297191Y335249D01*
X297166Y335240D01*
X297090Y335179D01*
X297010Y335123D01*
X296994Y335102D01*
X296974Y335086D01*
X296921Y335004D01*
X296863Y334926D01*
X296855Y334901D01*
X296841Y334879D01*
X296817Y334785D01*
X296787Y334692D01*
X296787Y334666D01*
X296781Y334641D01*
X296788Y334544D01*
X296789Y334446D01*
X296799Y334415D01*
X296800Y334395D01*
X296813Y334365D01*
X296836Y334285D01*
X298197Y331000D01*
X298197Y326352D01*
X296418Y322057D01*
X293131Y318770D01*
X288836Y316991D01*
X284188Y316991D01*
X279893Y318770D01*
X276606Y322057D01*
X274827Y326352D01*
X274827Y331000D01*
X276606Y335295D01*
X279863Y338552D01*
X279905Y338610D01*
X279954Y338662D01*
X279976Y338709D01*
X280007Y338751D01*
X280028Y338820D01*
X280058Y338885D01*
X280064Y338937D01*
X280079Y338987D01*
X280077Y339058D01*
X280085Y339129D01*
X280074Y339180D01*
X280073Y339232D01*
X280048Y339300D01*
X280033Y339370D01*
X280006Y339415D01*
X279988Y339463D01*
X279943Y339519D01*
X279907Y339581D01*
X279867Y339615D01*
X279834Y339655D01*
X279774Y339694D01*
X279720Y339741D01*
X279671Y339760D01*
X279628Y339788D01*
X279558Y339806D01*
X279491Y339833D01*
X279420Y339841D01*
X279389Y339849D01*
X279366Y339847D01*
X279325Y339851D01*
X268299Y339851D01*
X268229Y339840D01*
X268157Y339838D01*
X268108Y339820D01*
X268056Y339812D01*
X267993Y339778D01*
X267926Y339753D01*
X267885Y339721D01*
X267839Y339696D01*
X267790Y339644D01*
X267734Y339600D01*
X267706Y339556D01*
X267670Y339518D01*
X267640Y339453D01*
X267601Y339393D01*
X267588Y339342D01*
X267566Y339295D01*
X267558Y339224D01*
X267541Y339154D01*
X267545Y339102D01*
X267539Y339051D01*
X267554Y338980D01*
X267560Y338909D01*
X267580Y338861D01*
X267591Y338810D01*
X267628Y338749D01*
X267656Y338683D01*
X267701Y338627D01*
X267717Y338599D01*
X267735Y338584D01*
X267761Y338552D01*
X271018Y335295D01*
X272797Y331000D01*
X272797Y326352D01*
X271018Y322057D01*
X267731Y318770D01*
X263436Y316991D01*
X261500Y316991D01*
X261410Y316977D01*
X261319Y316969D01*
X261289Y316957D01*
X261257Y316952D01*
X261176Y316909D01*
X261092Y316873D01*
X261060Y316847D01*
X261040Y316836D01*
X261017Y316813D01*
X260962Y316768D01*
X236444Y292250D01*
X236391Y292177D01*
X236331Y292107D01*
X236319Y292077D01*
X236300Y292051D01*
X236273Y291964D01*
X236239Y291879D01*
X236235Y291838D01*
X236228Y291816D01*
X236229Y291783D01*
X236221Y291712D01*
X236221Y285351D01*
X230248Y279379D01*
X230237Y279376D01*
X230135Y279360D01*
X230118Y279350D01*
X230098Y279346D01*
X230009Y279293D01*
X229918Y279244D01*
X229904Y279230D01*
X229887Y279220D01*
X229820Y279141D01*
X229748Y279066D01*
X229740Y279048D01*
X229727Y279033D01*
X229688Y278937D01*
X229645Y278843D01*
X229643Y278823D01*
X229635Y278805D01*
X229617Y278638D01*
X229617Y274272D01*
X229631Y274182D01*
X229639Y274091D01*
X229651Y274061D01*
X229656Y274029D01*
X229699Y273949D01*
X229735Y273865D01*
X229761Y273833D01*
X229772Y273812D01*
X229795Y273790D01*
X229840Y273734D01*
X234697Y268877D01*
X234697Y260459D01*
X228745Y254507D01*
X220327Y254507D01*
X214375Y260459D01*
X214375Y268877D01*
X219232Y273734D01*
X219285Y273808D01*
X219345Y273877D01*
X219357Y273907D01*
X219376Y273933D01*
X219403Y274020D01*
X219437Y274105D01*
X219441Y274146D01*
X219448Y274169D01*
X219447Y274201D01*
X219455Y274272D01*
X219455Y281480D01*
X219441Y281570D01*
X219433Y281661D01*
X219421Y281691D01*
X219416Y281723D01*
X219373Y281803D01*
X219337Y281887D01*
X219311Y281920D01*
X219300Y281940D01*
X219277Y281962D01*
X219232Y282018D01*
X215899Y285351D01*
X215899Y293769D01*
X221851Y299721D01*
X229228Y299721D01*
X229318Y299735D01*
X229409Y299743D01*
X229439Y299755D01*
X229471Y299760D01*
X229552Y299803D01*
X229635Y299839D01*
X229668Y299865D01*
X229688Y299876D01*
X229710Y299899D01*
X229766Y299944D01*
X245515Y315692D01*
X245556Y315750D01*
X245606Y315802D01*
X245628Y315849D01*
X245658Y315891D01*
X245679Y315960D01*
X245709Y316025D01*
X245715Y316077D01*
X245730Y316127D01*
X245729Y316198D01*
X245736Y316269D01*
X245725Y316320D01*
X245724Y316372D01*
X245699Y316440D01*
X245684Y316510D01*
X245657Y316555D01*
X245640Y316603D01*
X245595Y316659D01*
X245558Y316721D01*
X245518Y316755D01*
X245486Y316795D01*
X245426Y316834D01*
X245371Y316881D01*
X245323Y316900D01*
X245279Y316928D01*
X245210Y316946D01*
X245143Y316973D01*
X245072Y316981D01*
X245040Y316989D01*
X245017Y316987D01*
X244976Y316991D01*
X226408Y316991D01*
X224027Y319372D01*
X224027Y337980D01*
X224599Y338552D01*
X224641Y338610D01*
X224691Y338662D01*
X224713Y338709D01*
X224743Y338751D01*
X224764Y338820D01*
X224794Y338885D01*
X224800Y338937D01*
X224815Y338987D01*
X224813Y339058D01*
X224821Y339129D01*
X224810Y339180D01*
X224809Y339232D01*
X224784Y339300D01*
X224769Y339370D01*
X224742Y339415D01*
X224724Y339463D01*
X224680Y339519D01*
X224643Y339581D01*
X224603Y339615D01*
X224571Y339655D01*
X224510Y339694D01*
X224456Y339741D01*
X224408Y339760D01*
X224364Y339788D01*
X224294Y339806D01*
X224228Y339833D01*
X224157Y339841D01*
X224125Y339849D01*
X224102Y339847D01*
X224061Y339851D01*
X190514Y339851D01*
X190424Y339837D01*
X190333Y339829D01*
X190303Y339817D01*
X190271Y339812D01*
X190190Y339769D01*
X190106Y339733D01*
X190074Y339707D01*
X190054Y339696D01*
X190031Y339673D01*
X189975Y339628D01*
X184864Y334517D01*
X175816Y334517D01*
X169417Y340916D01*
X169417Y341540D01*
X169406Y341611D01*
X169404Y341682D01*
X169386Y341731D01*
X169378Y341783D01*
X169344Y341846D01*
X169319Y341913D01*
X169287Y341954D01*
X169262Y342000D01*
X169210Y342049D01*
X169166Y342105D01*
X169122Y342133D01*
X169084Y342169D01*
X169019Y342199D01*
X168959Y342238D01*
X168908Y342251D01*
X168861Y342273D01*
X168790Y342281D01*
X168720Y342298D01*
X168668Y342294D01*
X168617Y342300D01*
X168546Y342285D01*
X168475Y342279D01*
X168427Y342259D01*
X168376Y342248D01*
X168315Y342211D01*
X168249Y342183D01*
X168193Y342138D01*
X168165Y342122D01*
X168150Y342104D01*
X168118Y342078D01*
X165726Y339686D01*
X163672Y338835D01*
X141746Y338835D01*
X141656Y338821D01*
X141565Y338813D01*
X141535Y338801D01*
X141503Y338796D01*
X141422Y338753D01*
X141338Y338717D01*
X141306Y338691D01*
X141286Y338680D01*
X141263Y338657D01*
X141207Y338612D01*
X136096Y333501D01*
X127048Y333501D01*
X120649Y339900D01*
X120649Y348948D01*
X127048Y355347D01*
X136096Y355347D01*
X141207Y350236D01*
X141281Y350183D01*
X141351Y350123D01*
X141381Y350111D01*
X141407Y350092D01*
X141494Y350065D01*
X141579Y350031D01*
X141620Y350027D01*
X141642Y350020D01*
X141674Y350021D01*
X141746Y350013D01*
X159930Y350013D01*
X160020Y350027D01*
X160111Y350035D01*
X160141Y350047D01*
X160172Y350052D01*
X160253Y350095D01*
X160337Y350131D01*
X160369Y350157D01*
X160390Y350168D01*
X160412Y350191D01*
X160468Y350236D01*
X207146Y396914D01*
X209200Y397765D01*
X224871Y397765D01*
X224916Y397772D01*
X224962Y397770D01*
X225037Y397792D01*
X225114Y397804D01*
X225154Y397826D01*
X225198Y397839D01*
X225262Y397883D01*
X225331Y397920D01*
X225363Y397953D01*
X225400Y397979D01*
X225447Y398041D01*
X225500Y398098D01*
X225520Y398140D01*
X225547Y398176D01*
X225571Y398250D01*
X225604Y398321D01*
X225609Y398367D01*
X225623Y398410D01*
X225623Y398488D01*
X225631Y398565D01*
X225621Y398610D01*
X225621Y398656D01*
X225583Y398788D01*
X225579Y398806D01*
X225576Y398810D01*
X225574Y398817D01*
X224027Y402552D01*
X224027Y407200D01*
X225806Y411495D01*
X229093Y414782D01*
X233388Y416561D01*
X238036Y416561D01*
X242331Y414782D01*
X245618Y411495D01*
X247397Y407200D01*
X247397Y402552D01*
X246036Y399267D01*
X246014Y399172D01*
X245985Y399079D01*
X245986Y399053D01*
X245980Y399027D01*
X245989Y398931D01*
X245992Y398833D01*
X246001Y398809D01*
X246003Y398783D01*
X246043Y398694D01*
X246076Y398602D01*
X246092Y398582D01*
X246103Y398558D01*
X246169Y398486D01*
X246230Y398410D01*
X246252Y398396D01*
X246269Y398377D01*
X246355Y398330D01*
X246437Y398277D01*
X246462Y398271D01*
X246485Y398258D01*
X246581Y398241D01*
X246675Y398217D01*
X246701Y398219D01*
X246727Y398214D01*
X246824Y398229D01*
X246920Y398236D01*
X246944Y398246D01*
X246970Y398250D01*
X247057Y398294D01*
X247147Y398333D01*
X247172Y398353D01*
X247190Y398362D01*
X247213Y398385D01*
X247278Y398437D01*
X249643Y400803D01*
X249712Y400898D01*
X249781Y400991D01*
X249783Y400997D01*
X249787Y401003D01*
X249821Y401115D01*
X249857Y401225D01*
X249857Y401232D01*
X249859Y401238D01*
X249856Y401354D01*
X249855Y401471D01*
X249853Y401478D01*
X249853Y401483D01*
X249846Y401501D01*
X249808Y401632D01*
X249427Y402552D01*
X249427Y407200D01*
X251206Y411495D01*
X254493Y414782D01*
X258788Y416561D01*
X263436Y416561D01*
X267731Y414782D01*
X271018Y411495D01*
X272797Y407200D01*
X272797Y402552D01*
X271018Y398257D01*
X267731Y394970D01*
X263436Y393191D01*
X258788Y393191D01*
X258587Y393275D01*
X258473Y393301D01*
X258360Y393330D01*
X258353Y393329D01*
X258347Y393331D01*
X258231Y393320D01*
X258114Y393311D01*
X258109Y393308D01*
X258102Y393308D01*
X257995Y393260D01*
X257888Y393214D01*
X257882Y393210D01*
X257878Y393208D01*
X257864Y393195D01*
X257757Y393110D01*
X252086Y387438D01*
X250032Y386587D01*
X212942Y386587D01*
X212852Y386573D01*
X212761Y386565D01*
X212731Y386553D01*
X212700Y386548D01*
X212619Y386505D01*
X212535Y386469D01*
X212503Y386443D01*
X212482Y386432D01*
X212460Y386409D01*
X212404Y386364D01*
X183702Y357662D01*
X183660Y357604D01*
X183611Y357552D01*
X183589Y357505D01*
X183558Y357463D01*
X183537Y357394D01*
X183507Y357329D01*
X183501Y357277D01*
X183486Y357227D01*
X183488Y357156D01*
X183480Y357085D01*
X183491Y357034D01*
X183492Y356982D01*
X183517Y356914D01*
X183532Y356844D01*
X183559Y356799D01*
X183577Y356751D01*
X183622Y356695D01*
X183658Y356633D01*
X183698Y356599D01*
X183731Y356559D01*
X183791Y356520D01*
X183845Y356473D01*
X183894Y356454D01*
X183937Y356426D01*
X184007Y356408D01*
X184073Y356381D01*
X184145Y356373D01*
X184176Y356365D01*
X184199Y356367D01*
X184240Y356363D01*
X184864Y356363D01*
X189975Y351252D01*
X190049Y351199D01*
X190119Y351139D01*
X190149Y351127D01*
X190175Y351108D01*
X190262Y351081D01*
X190347Y351047D01*
X190388Y351043D01*
X190410Y351036D01*
X190442Y351037D01*
X190514Y351029D01*
X296768Y351029D01*
X298822Y350178D01*
X300501Y348499D01*
X308557Y340442D01*
X308651Y340375D01*
X308746Y340305D01*
X308752Y340303D01*
X308757Y340299D01*
X308868Y340265D01*
X308980Y340228D01*
X308986Y340228D01*
X308992Y340227D01*
X309109Y340230D01*
X309226Y340231D01*
X309233Y340233D01*
X309238Y340233D01*
X309255Y340239D01*
X309387Y340277D01*
X309588Y340361D01*
X314236Y340361D01*
X318531Y338582D01*
X321818Y335295D01*
X323597Y331000D01*
X323597Y326352D01*
X321818Y322057D01*
X318740Y318979D01*
X318687Y318905D01*
X318627Y318836D01*
X318615Y318805D01*
X318596Y318779D01*
X318569Y318692D01*
X318535Y318607D01*
X318531Y318566D01*
X318524Y318544D01*
X318525Y318512D01*
X318517Y318441D01*
X318517Y296624D01*
X318528Y296553D01*
X318530Y296482D01*
X318548Y296433D01*
X318556Y296381D01*
X318590Y296318D01*
X318615Y296251D01*
X318647Y296210D01*
X318672Y296164D01*
X318724Y296114D01*
X318768Y296058D01*
X318812Y296030D01*
X318850Y295994D01*
X318915Y295964D01*
X318975Y295925D01*
X319026Y295913D01*
X319073Y295891D01*
X319144Y295883D01*
X319214Y295865D01*
X319266Y295869D01*
X319317Y295864D01*
X319388Y295879D01*
X319459Y295885D01*
X319507Y295905D01*
X319558Y295916D01*
X319619Y295953D01*
X319685Y295981D01*
X319741Y296026D01*
X319769Y296042D01*
X319784Y296060D01*
X319816Y296086D01*
X323451Y299721D01*
X326764Y299721D01*
X326854Y299735D01*
X326945Y299743D01*
X326975Y299755D01*
X327007Y299760D01*
X327088Y299803D01*
X327171Y299839D01*
X327204Y299865D01*
X327224Y299876D01*
X327246Y299899D01*
X327302Y299944D01*
X348264Y320906D01*
X348317Y320979D01*
X348377Y321049D01*
X348389Y321079D01*
X348408Y321105D01*
X348435Y321192D01*
X348469Y321277D01*
X348473Y321318D01*
X348480Y321340D01*
X348479Y321373D01*
X348487Y321444D01*
X348487Y327780D01*
X348473Y327870D01*
X348465Y327961D01*
X348453Y327991D01*
X348448Y328023D01*
X348405Y328104D01*
X348369Y328187D01*
X348343Y328220D01*
X348332Y328240D01*
X348309Y328262D01*
X348264Y328318D01*
X282936Y393647D01*
X282882Y393685D01*
X282836Y393731D01*
X282762Y393772D01*
X282736Y393791D01*
X282717Y393796D01*
X282689Y393812D01*
X279893Y394970D01*
X276606Y398257D01*
X274827Y402552D01*
X274827Y407200D01*
X276606Y411495D01*
X279893Y414782D01*
X284188Y416561D01*
X288836Y416561D01*
X293131Y414782D01*
X296418Y411495D01*
X298197Y407200D01*
X298197Y402552D01*
X296418Y398257D01*
X295095Y396935D01*
X295084Y396918D01*
X295068Y396906D01*
X295012Y396819D01*
X294952Y396735D01*
X294946Y396716D01*
X294935Y396699D01*
X294910Y396599D01*
X294879Y396500D01*
X294880Y396480D01*
X294875Y396460D01*
X294883Y396358D01*
X294886Y396254D01*
X294893Y396235D01*
X294894Y396215D01*
X294934Y396120D01*
X294970Y396023D01*
X294983Y396007D01*
X294990Y395989D01*
X295095Y395858D01*
X355958Y334996D01*
X356031Y334943D01*
X356101Y334883D01*
X356131Y334871D01*
X356157Y334852D01*
X356244Y334825D01*
X356329Y334791D01*
X356370Y334787D01*
X356392Y334780D01*
X356425Y334781D01*
X356496Y334773D01*
X362857Y334773D01*
X368809Y328821D01*
X368809Y320403D01*
X362857Y314451D01*
X356496Y314451D01*
X356406Y314437D01*
X356315Y314429D01*
X356285Y314417D01*
X356253Y314412D01*
X356172Y314369D01*
X356089Y314333D01*
X356056Y314307D01*
X356036Y314296D01*
X356014Y314273D01*
X355958Y314228D01*
X337198Y295468D01*
X337186Y295452D01*
X337170Y295440D01*
X337114Y295352D01*
X337054Y295269D01*
X337048Y295250D01*
X337037Y295233D01*
X337012Y295132D01*
X336982Y295034D01*
X336982Y295014D01*
X336977Y294994D01*
X336985Y294891D01*
X336988Y294788D01*
X336995Y294769D01*
X336996Y294749D01*
X337037Y294654D01*
X337073Y294557D01*
X337085Y294541D01*
X337093Y294523D01*
X337198Y294392D01*
X337821Y293769D01*
X337821Y285351D01*
X331869Y279399D01*
X323451Y279399D01*
X319816Y283034D01*
X319758Y283076D01*
X319706Y283126D01*
X319659Y283147D01*
X319617Y283178D01*
X319548Y283199D01*
X319483Y283229D01*
X319431Y283235D01*
X319381Y283250D01*
X319310Y283248D01*
X319239Y283256D01*
X319188Y283245D01*
X319136Y283244D01*
X319068Y283219D01*
X318998Y283204D01*
X318953Y283177D01*
X318905Y283159D01*
X318849Y283115D01*
X318787Y283078D01*
X318753Y283038D01*
X318713Y283006D01*
X318674Y282945D01*
X318627Y282891D01*
X318608Y282843D01*
X318580Y282799D01*
X318562Y282729D01*
X318535Y282663D01*
X318527Y282591D01*
X318519Y282560D01*
X318521Y282537D01*
X318517Y282496D01*
X318517Y270510D01*
X318520Y270490D01*
X318518Y270471D01*
X318540Y270369D01*
X318556Y270267D01*
X318566Y270250D01*
X318570Y270230D01*
X318623Y270141D01*
X318672Y270050D01*
X318686Y270036D01*
X318696Y270019D01*
X318775Y269952D01*
X318850Y269880D01*
X318868Y269872D01*
X318883Y269859D01*
X318979Y269820D01*
X319073Y269777D01*
X319093Y269775D01*
X319111Y269767D01*
X319278Y269749D01*
X352648Y269749D01*
X354744Y268881D01*
X354787Y268843D01*
X354818Y268831D01*
X354844Y268812D01*
X354931Y268785D01*
X355016Y268751D01*
X355056Y268747D01*
X355079Y268740D01*
X355111Y268741D01*
X355182Y268733D01*
X378954Y268733D01*
X379044Y268747D01*
X379135Y268755D01*
X379165Y268767D01*
X379197Y268772D01*
X379278Y268815D01*
X379362Y268851D01*
X379394Y268877D01*
X379414Y268888D01*
X379437Y268911D01*
X379493Y268956D01*
X384096Y273559D01*
X393144Y273559D01*
X399543Y267160D01*
X399543Y267044D01*
X399554Y266973D01*
X399556Y266902D01*
X399574Y266853D01*
X399582Y266801D01*
X399616Y266738D01*
X399641Y266671D01*
X399673Y266630D01*
X399698Y266584D01*
X399750Y266535D01*
X399794Y266479D01*
X399838Y266451D01*
X399876Y266415D01*
X399941Y266385D01*
X400001Y266346D01*
X400052Y266333D01*
X400099Y266311D01*
X400170Y266303D01*
X400240Y266286D01*
X400292Y266290D01*
X400343Y266284D01*
X400414Y266299D01*
X400485Y266305D01*
X400533Y266325D01*
X400584Y266336D01*
X400645Y266373D01*
X400711Y266401D01*
X400767Y266446D01*
X400795Y266462D01*
X400810Y266480D01*
X400842Y266506D01*
X402218Y267882D01*
X404272Y268733D01*
X434834Y268733D01*
X434924Y268747D01*
X435015Y268755D01*
X435045Y268767D01*
X435077Y268772D01*
X435158Y268815D01*
X435242Y268851D01*
X435274Y268877D01*
X435294Y268888D01*
X435317Y268911D01*
X435373Y268956D01*
X440992Y274575D01*
X450040Y274575D01*
X456439Y268176D01*
X456439Y259128D01*
X450040Y252729D01*
X440992Y252729D01*
X436389Y257332D01*
X436315Y257385D01*
X436245Y257445D01*
X436215Y257457D01*
X436189Y257476D01*
X436102Y257503D01*
X436017Y257537D01*
X435976Y257541D01*
X435954Y257548D01*
X435922Y257547D01*
X435850Y257555D01*
X408014Y257555D01*
X407924Y257541D01*
X407833Y257533D01*
X407803Y257521D01*
X407772Y257516D01*
X407691Y257473D01*
X407607Y257437D01*
X407575Y257411D01*
X407554Y257400D01*
X407532Y257377D01*
X407476Y257332D01*
X338896Y188752D01*
X338854Y188694D01*
X338805Y188642D01*
X338783Y188595D01*
X338752Y188553D01*
X338731Y188484D01*
X338701Y188419D01*
X338695Y188367D01*
X338680Y188317D01*
X338682Y188246D01*
X338674Y188175D01*
X338685Y188124D01*
X338686Y188072D01*
X338711Y188004D01*
X338726Y187934D01*
X338753Y187889D01*
X338771Y187841D01*
X338816Y187785D01*
X338852Y187723D01*
X338892Y187689D01*
X338925Y187649D01*
X338985Y187610D01*
X339039Y187563D01*
X339088Y187544D01*
X339131Y187516D01*
X339201Y187498D01*
X339267Y187471D01*
X339339Y187463D01*
X339370Y187455D01*
X339393Y187457D01*
X339434Y187453D01*
X344208Y187453D01*
X348503Y185674D01*
X351790Y182387D01*
X353569Y178092D01*
X353569Y173444D01*
X351790Y169149D01*
X348503Y165862D01*
X344208Y164083D01*
X339560Y164083D01*
X335265Y165862D01*
X331978Y169149D01*
X330199Y173444D01*
X330199Y178218D01*
X330188Y178289D01*
X330186Y178360D01*
X330168Y178409D01*
X330160Y178461D01*
X330126Y178524D01*
X330101Y178591D01*
X330069Y178632D01*
X330044Y178678D01*
X329992Y178727D01*
X329948Y178783D01*
X329904Y178811D01*
X329866Y178847D01*
X329801Y178878D01*
X329741Y178916D01*
X329690Y178929D01*
X329643Y178951D01*
X329572Y178959D01*
X329502Y178976D01*
X329450Y178972D01*
X329399Y178978D01*
X329328Y178963D01*
X329257Y178957D01*
X329209Y178937D01*
X329158Y178926D01*
X329097Y178889D01*
X329031Y178861D01*
X328975Y178816D01*
X328947Y178800D01*
X328932Y178782D01*
X328900Y178756D01*
X328392Y178248D01*
X328338Y178174D01*
X328279Y178105D01*
X328267Y178075D01*
X328248Y178048D01*
X328221Y177961D01*
X328187Y177876D01*
X328183Y177835D01*
X328176Y177813D01*
X328177Y177781D01*
X328169Y177710D01*
X328169Y173444D01*
X326390Y169149D01*
X323103Y165862D01*
X319496Y164368D01*
X319457Y164344D01*
X319414Y164328D01*
X319361Y164286D01*
X319356Y164283D01*
X319352Y164279D01*
X319287Y164239D01*
X319258Y164203D01*
X319222Y164175D01*
X319180Y164109D01*
X319130Y164049D01*
X319114Y164006D01*
X319089Y163968D01*
X319070Y163892D01*
X319042Y163819D01*
X319040Y163774D01*
X319029Y163729D01*
X319035Y163652D01*
X319032Y163574D01*
X319044Y163530D01*
X319048Y163484D01*
X319078Y163412D01*
X319100Y163337D01*
X319126Y163300D01*
X319144Y163258D01*
X319230Y163151D01*
X319240Y163135D01*
X319244Y163132D01*
X319249Y163127D01*
X333308Y149068D01*
X333382Y149015D01*
X333451Y148955D01*
X333482Y148943D01*
X333508Y148924D01*
X333595Y148897D01*
X333680Y148863D01*
X333720Y148859D01*
X333743Y148852D01*
X333775Y148853D01*
X333846Y148845D01*
X372968Y148845D01*
X375022Y147994D01*
X388172Y134844D01*
X388246Y134791D01*
X388315Y134731D01*
X388346Y134719D01*
X388372Y134700D01*
X388459Y134673D01*
X388544Y134639D01*
X388584Y134635D01*
X388607Y134628D01*
X388639Y134629D01*
X388710Y134621D01*
X395369Y134621D01*
X401321Y128669D01*
X401321Y120251D01*
X396972Y115902D01*
X396919Y115828D01*
X396859Y115759D01*
X396847Y115729D01*
X396828Y115703D01*
X396801Y115616D01*
X396767Y115531D01*
X396763Y115490D01*
X396756Y115467D01*
X396757Y115435D01*
X396749Y115364D01*
X396749Y66638D01*
X396763Y66548D01*
X396771Y66457D01*
X396783Y66427D01*
X396788Y66396D01*
X396831Y66315D01*
X396867Y66231D01*
X396893Y66199D01*
X396904Y66178D01*
X396927Y66156D01*
X396972Y66100D01*
X414251Y48820D01*
X414267Y48809D01*
X414280Y48793D01*
X414367Y48737D01*
X414451Y48677D01*
X414470Y48671D01*
X414487Y48660D01*
X414587Y48635D01*
X414686Y48605D01*
X414706Y48605D01*
X414725Y48600D01*
X414828Y48608D01*
X414932Y48611D01*
X414951Y48618D01*
X414970Y48619D01*
X415065Y48660D01*
X415163Y48695D01*
X415179Y48708D01*
X415197Y48716D01*
X415328Y48820D01*
X416545Y50038D01*
X420840Y51817D01*
X425488Y51817D01*
X429783Y50038D01*
X433070Y46751D01*
X434849Y42456D01*
X434849Y22568D01*
X433070Y18273D01*
X429783Y14986D01*
X425488Y13207D01*
X420840Y13207D01*
X416545Y14986D01*
X413258Y18273D01*
X411479Y22568D01*
X411479Y35470D01*
X411465Y35560D01*
X411457Y35651D01*
X411445Y35681D01*
X411440Y35713D01*
X411397Y35793D01*
X411361Y35877D01*
X411335Y35909D01*
X411324Y35930D01*
X411301Y35952D01*
X411256Y36008D01*
X386422Y60842D01*
X385571Y62896D01*
X385571Y115364D01*
X385557Y115454D01*
X385549Y115545D01*
X385537Y115575D01*
X385532Y115607D01*
X385489Y115687D01*
X385453Y115771D01*
X385427Y115803D01*
X385416Y115824D01*
X385393Y115846D01*
X385348Y115902D01*
X380999Y120251D01*
X380999Y125894D01*
X380985Y125984D01*
X380977Y126075D01*
X380965Y126105D01*
X380960Y126136D01*
X380917Y126217D01*
X380881Y126301D01*
X380855Y126333D01*
X380844Y126354D01*
X380821Y126376D01*
X380776Y126432D01*
X369764Y137444D01*
X369690Y137497D01*
X369621Y137557D01*
X369590Y137569D01*
X369564Y137588D01*
X369477Y137615D01*
X369392Y137649D01*
X369352Y137653D01*
X369329Y137660D01*
X369297Y137659D01*
X369226Y137667D01*
X361648Y137667D01*
X361577Y137656D01*
X361506Y137654D01*
X361457Y137636D01*
X361405Y137628D01*
X361342Y137594D01*
X361275Y137569D01*
X361234Y137537D01*
X361188Y137512D01*
X361138Y137460D01*
X361082Y137416D01*
X361054Y137372D01*
X361018Y137334D01*
X360988Y137269D01*
X360949Y137209D01*
X360937Y137158D01*
X360915Y137111D01*
X360907Y137040D01*
X360889Y136970D01*
X360893Y136918D01*
X360888Y136867D01*
X360903Y136796D01*
X360909Y136725D01*
X360929Y136677D01*
X360940Y136626D01*
X360977Y136565D01*
X361005Y136499D01*
X361050Y136443D01*
X361066Y136415D01*
X361084Y136400D01*
X361110Y136368D01*
X366777Y130701D01*
X366777Y122283D01*
X360825Y116331D01*
X352407Y116331D01*
X346455Y122283D01*
X346455Y129660D01*
X346441Y129750D01*
X346433Y129841D01*
X346421Y129871D01*
X346416Y129903D01*
X346373Y129984D01*
X346337Y130067D01*
X346311Y130100D01*
X346300Y130120D01*
X346277Y130142D01*
X346232Y130198D01*
X344574Y131856D01*
X344501Y131909D01*
X344431Y131969D01*
X344401Y131981D01*
X344375Y132000D01*
X344288Y132027D01*
X344203Y132061D01*
X344162Y132065D01*
X344140Y132072D01*
X344107Y132071D01*
X344036Y132079D01*
X325072Y132079D01*
X324982Y132065D01*
X324891Y132057D01*
X324861Y132045D01*
X324829Y132040D01*
X324749Y131997D01*
X324665Y131961D01*
X324633Y131935D01*
X324612Y131924D01*
X324590Y131901D01*
X324534Y131856D01*
X319677Y126999D01*
X312300Y126999D01*
X312210Y126985D01*
X312119Y126977D01*
X312089Y126965D01*
X312057Y126960D01*
X311976Y126917D01*
X311893Y126881D01*
X311860Y126855D01*
X311840Y126844D01*
X311818Y126821D01*
X311762Y126776D01*
X296370Y111385D01*
X296302Y111290D01*
X296232Y111196D01*
X296230Y111190D01*
X296226Y111185D01*
X296192Y111074D01*
X296156Y110962D01*
X296156Y110956D01*
X296154Y110950D01*
X296157Y110833D01*
X296158Y110716D01*
X296160Y110709D01*
X296160Y110704D01*
X296167Y110686D01*
X296205Y110555D01*
X297689Y106972D01*
X297689Y102324D01*
X295910Y98029D01*
X292623Y94742D01*
X288328Y92963D01*
X283680Y92963D01*
X279385Y94742D01*
X276098Y98029D01*
X274319Y102324D01*
X274319Y106972D01*
X276098Y111267D01*
X279385Y114554D01*
X283680Y116333D01*
X286632Y116333D01*
X286722Y116347D01*
X286813Y116355D01*
X286843Y116367D01*
X286875Y116372D01*
X286956Y116415D01*
X287039Y116451D01*
X287072Y116477D01*
X287092Y116488D01*
X287114Y116511D01*
X287170Y116556D01*
X305084Y134470D01*
X305137Y134543D01*
X305197Y134613D01*
X305209Y134643D01*
X305228Y134669D01*
X305255Y134756D01*
X305289Y134841D01*
X305293Y134882D01*
X305300Y134904D01*
X305299Y134937D01*
X305307Y135008D01*
X305307Y141369D01*
X311259Y147321D01*
X317410Y147321D01*
X317481Y147332D01*
X317552Y147334D01*
X317601Y147352D01*
X317653Y147360D01*
X317716Y147394D01*
X317783Y147419D01*
X317824Y147451D01*
X317870Y147476D01*
X317919Y147527D01*
X317975Y147572D01*
X318003Y147616D01*
X318039Y147654D01*
X318069Y147719D01*
X318108Y147779D01*
X318121Y147830D01*
X318143Y147877D01*
X318151Y147948D01*
X318168Y148018D01*
X318164Y148070D01*
X318170Y148121D01*
X318155Y148192D01*
X318149Y148263D01*
X318129Y148311D01*
X318118Y148362D01*
X318081Y148423D01*
X318053Y148489D01*
X318008Y148545D01*
X317992Y148573D01*
X317974Y148588D01*
X317948Y148620D01*
X299743Y166826D01*
X299727Y166837D01*
X299714Y166853D01*
X299627Y166909D01*
X299543Y166969D01*
X299524Y166975D01*
X299507Y166986D01*
X299407Y167011D01*
X299308Y167041D01*
X299288Y167041D01*
X299269Y167046D01*
X299166Y167038D01*
X299062Y167035D01*
X299043Y167028D01*
X299024Y167027D01*
X298929Y166986D01*
X298831Y166951D01*
X298815Y166938D01*
X298797Y166930D01*
X298666Y166826D01*
X297703Y165862D01*
X293408Y164083D01*
X288760Y164083D01*
X284465Y165862D01*
X281178Y169149D01*
X279399Y173444D01*
X279399Y178092D01*
X281178Y182387D01*
X284465Y185674D01*
X288760Y187453D01*
X293408Y187453D01*
X297703Y185674D01*
X300990Y182387D01*
X301640Y180818D01*
X301674Y180762D01*
X301700Y180702D01*
X301752Y180637D01*
X301769Y180609D01*
X301784Y180596D01*
X301805Y180571D01*
X303843Y178533D01*
X303880Y178506D01*
X303911Y178472D01*
X303979Y178435D01*
X304042Y178390D01*
X304086Y178376D01*
X304126Y178354D01*
X304203Y178340D01*
X304277Y178317D01*
X304323Y178318D01*
X304368Y178310D01*
X304445Y178322D01*
X304523Y178324D01*
X304566Y178339D01*
X304612Y178346D01*
X304681Y178381D01*
X304754Y178408D01*
X304790Y178437D01*
X304831Y178457D01*
X304886Y178513D01*
X304946Y178562D01*
X304971Y178600D01*
X305003Y178633D01*
X305069Y178753D01*
X305079Y178769D01*
X305081Y178773D01*
X305084Y178780D01*
X306578Y182387D01*
X309865Y185674D01*
X314160Y187453D01*
X318808Y187453D01*
X320446Y186774D01*
X320560Y186748D01*
X320673Y186719D01*
X320679Y186720D01*
X320686Y186718D01*
X320802Y186729D01*
X320918Y186738D01*
X320924Y186741D01*
X320930Y186741D01*
X321038Y186789D01*
X321145Y186835D01*
X321151Y186839D01*
X321155Y186841D01*
X321169Y186854D01*
X321276Y186939D01*
X384750Y250414D01*
X384792Y250472D01*
X384841Y250524D01*
X384863Y250571D01*
X384894Y250613D01*
X384915Y250682D01*
X384945Y250747D01*
X384951Y250799D01*
X384966Y250849D01*
X384964Y250920D01*
X384972Y250991D01*
X384961Y251042D01*
X384960Y251094D01*
X384935Y251162D01*
X384920Y251232D01*
X384893Y251276D01*
X384875Y251325D01*
X384830Y251381D01*
X384794Y251443D01*
X384754Y251477D01*
X384721Y251517D01*
X384661Y251556D01*
X384607Y251603D01*
X384558Y251622D01*
X384515Y251650D01*
X384445Y251668D01*
X384379Y251695D01*
X384307Y251703D01*
X384276Y251711D01*
X384253Y251709D01*
X384212Y251713D01*
X384096Y251713D01*
X378477Y257332D01*
X378403Y257385D01*
X378333Y257445D01*
X378303Y257457D01*
X378277Y257476D01*
X378190Y257503D01*
X378105Y257537D01*
X378064Y257541D01*
X378042Y257548D01*
X378010Y257547D01*
X377938Y257555D01*
X354330Y257555D01*
X354310Y257552D01*
X354291Y257554D01*
X354189Y257532D01*
X354087Y257516D01*
X354070Y257506D01*
X354050Y257502D01*
X353961Y257449D01*
X353870Y257400D01*
X353856Y257386D01*
X353839Y257376D01*
X353772Y257297D01*
X353700Y257222D01*
X353692Y257204D01*
X353679Y257189D01*
X353640Y257093D01*
X353597Y256999D01*
X353595Y256979D01*
X353587Y256961D01*
X353569Y256794D01*
X353569Y242664D01*
X351188Y240283D01*
X332580Y240283D01*
X330199Y242664D01*
X330199Y257810D01*
X330196Y257830D01*
X330198Y257849D01*
X330176Y257951D01*
X330160Y258053D01*
X330150Y258070D01*
X330146Y258090D01*
X330093Y258179D01*
X330044Y258270D01*
X330030Y258284D01*
X330020Y258301D01*
X329941Y258368D01*
X329866Y258440D01*
X329848Y258448D01*
X329833Y258461D01*
X329737Y258500D01*
X329643Y258543D01*
X329623Y258545D01*
X329605Y258553D01*
X329438Y258571D01*
X327536Y258571D01*
X327490Y258564D01*
X327444Y258566D01*
X327370Y258544D01*
X327293Y258532D01*
X327252Y258510D01*
X327208Y258497D01*
X327144Y258453D01*
X327075Y258416D01*
X327044Y258383D01*
X327006Y258357D01*
X326960Y258294D01*
X326906Y258238D01*
X326887Y258196D01*
X326859Y258160D01*
X326835Y258086D01*
X326802Y258015D01*
X326797Y257969D01*
X326783Y257926D01*
X326784Y257848D01*
X326775Y257771D01*
X326785Y257726D01*
X326786Y257680D01*
X326824Y257548D01*
X326828Y257530D01*
X326830Y257526D01*
X326832Y257519D01*
X328169Y254292D01*
X328169Y249644D01*
X326390Y245349D01*
X323103Y242062D01*
X318808Y240283D01*
X314160Y240283D01*
X309865Y242062D01*
X306578Y245349D01*
X304799Y249644D01*
X304799Y254292D01*
X306136Y257519D01*
X306146Y257563D01*
X306166Y257605D01*
X306174Y257682D01*
X306192Y257758D01*
X306188Y257804D01*
X306193Y257849D01*
X306176Y257926D01*
X306169Y258003D01*
X306150Y258045D01*
X306140Y258090D01*
X306100Y258157D01*
X306069Y258228D01*
X306038Y258262D01*
X306014Y258301D01*
X305955Y258352D01*
X305902Y258409D01*
X305862Y258431D01*
X305827Y258461D01*
X305755Y258490D01*
X305687Y258527D01*
X305642Y258536D01*
X305599Y258553D01*
X305463Y258568D01*
X305445Y258571D01*
X305440Y258570D01*
X305432Y258571D01*
X302136Y258571D01*
X302090Y258564D01*
X302044Y258566D01*
X301970Y258544D01*
X301893Y258532D01*
X301852Y258510D01*
X301808Y258497D01*
X301744Y258453D01*
X301675Y258416D01*
X301644Y258383D01*
X301606Y258357D01*
X301560Y258294D01*
X301506Y258238D01*
X301487Y258196D01*
X301459Y258160D01*
X301435Y258086D01*
X301402Y258015D01*
X301397Y257969D01*
X301383Y257926D01*
X301384Y257848D01*
X301375Y257771D01*
X301385Y257726D01*
X301386Y257680D01*
X301424Y257548D01*
X301428Y257530D01*
X301430Y257526D01*
X301432Y257519D01*
X302769Y254292D01*
X302769Y249644D01*
X300990Y245349D01*
X297703Y242062D01*
X293408Y240283D01*
X288760Y240283D01*
X284465Y242062D01*
X281178Y245349D01*
X279399Y249644D01*
X279399Y254292D01*
X280041Y255843D01*
X280064Y255938D01*
X280092Y256030D01*
X280092Y256057D01*
X280098Y256082D01*
X280089Y256179D01*
X280086Y256276D01*
X280077Y256301D01*
X280075Y256327D01*
X280035Y256416D01*
X280002Y256507D01*
X279985Y256528D01*
X279975Y256552D01*
X279909Y256623D01*
X279848Y256699D01*
X279826Y256714D01*
X279808Y256733D01*
X279723Y256780D01*
X279641Y256832D01*
X279616Y256839D01*
X279593Y256851D01*
X279497Y256869D01*
X279402Y256892D01*
X279376Y256890D01*
X279351Y256895D01*
X279254Y256881D01*
X279157Y256873D01*
X279133Y256863D01*
X279107Y256859D01*
X279020Y256815D01*
X278931Y256777D01*
X278905Y256757D01*
X278888Y256748D01*
X278865Y256724D01*
X278800Y256672D01*
X277450Y255323D01*
X277383Y255228D01*
X277313Y255134D01*
X277311Y255128D01*
X277307Y255123D01*
X277273Y255012D01*
X277236Y254900D01*
X277236Y254894D01*
X277235Y254888D01*
X277238Y254771D01*
X277239Y254654D01*
X277241Y254647D01*
X277241Y254642D01*
X277247Y254625D01*
X277285Y254493D01*
X277369Y254292D01*
X277369Y249644D01*
X275590Y245349D01*
X272303Y242062D01*
X271235Y241620D01*
X271135Y241558D01*
X271035Y241498D01*
X271031Y241493D01*
X271026Y241490D01*
X270951Y241400D01*
X270875Y241311D01*
X270873Y241305D01*
X270869Y241301D01*
X270827Y241193D01*
X270783Y241083D01*
X270782Y241076D01*
X270781Y241071D01*
X270780Y241053D01*
X270765Y240916D01*
X270765Y218344D01*
X269914Y216290D01*
X228152Y174528D01*
X228110Y174470D01*
X228061Y174418D01*
X228039Y174371D01*
X228008Y174329D01*
X227987Y174260D01*
X227957Y174195D01*
X227951Y174143D01*
X227936Y174093D01*
X227938Y174022D01*
X227930Y173951D01*
X227941Y173900D01*
X227942Y173848D01*
X227967Y173780D01*
X227982Y173710D01*
X228009Y173665D01*
X228027Y173617D01*
X228072Y173561D01*
X228108Y173499D01*
X228148Y173465D01*
X228181Y173425D01*
X228241Y173386D01*
X228295Y173339D01*
X228344Y173320D01*
X228387Y173292D01*
X228457Y173274D01*
X228523Y173247D01*
X228595Y173239D01*
X228626Y173231D01*
X228649Y173233D01*
X228690Y173229D01*
X228745Y173229D01*
X234697Y167277D01*
X234697Y158859D01*
X228745Y152907D01*
X222384Y152907D01*
X222294Y152893D01*
X222203Y152885D01*
X222173Y152873D01*
X222141Y152868D01*
X222060Y152825D01*
X221976Y152789D01*
X221944Y152763D01*
X221924Y152752D01*
X221902Y152729D01*
X221846Y152684D01*
X219680Y150518D01*
X219627Y150444D01*
X219611Y150426D01*
X219588Y150403D01*
X219586Y150397D01*
X219567Y150375D01*
X219555Y150345D01*
X219536Y150319D01*
X219510Y150233D01*
X219485Y150179D01*
X219484Y150168D01*
X219475Y150147D01*
X219471Y150106D01*
X219464Y150084D01*
X219465Y150051D01*
X219457Y149980D01*
X219457Y146256D01*
X219471Y146166D01*
X219479Y146075D01*
X219491Y146045D01*
X219496Y146013D01*
X219539Y145933D01*
X219575Y145849D01*
X219601Y145817D01*
X219612Y145796D01*
X219635Y145774D01*
X219680Y145718D01*
X224029Y141369D01*
X224029Y132951D01*
X219680Y128602D01*
X219627Y128528D01*
X219567Y128459D01*
X219555Y128429D01*
X219536Y128403D01*
X219509Y128316D01*
X219475Y128231D01*
X219471Y128190D01*
X219464Y128167D01*
X219465Y128135D01*
X219457Y128064D01*
X219457Y112148D01*
X219471Y112058D01*
X219479Y111967D01*
X219491Y111937D01*
X219496Y111905D01*
X219539Y111825D01*
X219575Y111741D01*
X219601Y111708D01*
X219612Y111688D01*
X219635Y111666D01*
X219680Y111610D01*
X222947Y108342D01*
X222985Y108315D01*
X223016Y108281D01*
X223084Y108244D01*
X223147Y108198D01*
X223191Y108185D01*
X223231Y108163D01*
X223308Y108149D01*
X223382Y108126D01*
X223428Y108127D01*
X223473Y108119D01*
X223550Y108130D01*
X223628Y108132D01*
X223671Y108148D01*
X223717Y108155D01*
X223786Y108190D01*
X223859Y108217D01*
X223895Y108246D01*
X223936Y108266D01*
X223990Y108322D01*
X224051Y108371D01*
X224076Y108409D01*
X224108Y108442D01*
X224174Y108562D01*
X224184Y108577D01*
X224185Y108582D01*
X224189Y108589D01*
X225298Y111267D01*
X228585Y114554D01*
X232880Y116333D01*
X237528Y116333D01*
X241823Y114554D01*
X245110Y111267D01*
X246889Y106972D01*
X246889Y102324D01*
X245110Y98029D01*
X241823Y94742D01*
X239145Y93633D01*
X239106Y93609D01*
X239063Y93593D01*
X239002Y93544D01*
X238936Y93503D01*
X238906Y93468D01*
X238871Y93439D01*
X238829Y93374D01*
X238779Y93314D01*
X238763Y93271D01*
X238738Y93232D01*
X238719Y93157D01*
X238691Y93084D01*
X238689Y93038D01*
X238678Y92994D01*
X238684Y92916D01*
X238680Y92838D01*
X238693Y92794D01*
X238697Y92749D01*
X238727Y92677D01*
X238749Y92602D01*
X238775Y92564D01*
X238793Y92522D01*
X238878Y92416D01*
X238889Y92400D01*
X238893Y92397D01*
X238898Y92391D01*
X265177Y66113D01*
X265177Y39710D01*
X265196Y39595D01*
X265213Y39479D01*
X265215Y39473D01*
X265216Y39467D01*
X265271Y39365D01*
X265324Y39260D01*
X265329Y39255D01*
X265332Y39250D01*
X265416Y39170D01*
X265500Y39088D01*
X265506Y39084D01*
X265510Y39081D01*
X265527Y39073D01*
X265647Y39007D01*
X267223Y38354D01*
X270510Y35067D01*
X272289Y30772D01*
X272289Y26124D01*
X270952Y22897D01*
X270942Y22853D01*
X270922Y22811D01*
X270914Y22734D01*
X270896Y22658D01*
X270900Y22612D01*
X270895Y22567D01*
X270912Y22490D01*
X270919Y22413D01*
X270938Y22371D01*
X270948Y22326D01*
X270988Y22259D01*
X271019Y22188D01*
X271050Y22154D01*
X271074Y22115D01*
X271133Y22064D01*
X271186Y22007D01*
X271226Y21985D01*
X271261Y21955D01*
X271333Y21926D01*
X271401Y21889D01*
X271446Y21880D01*
X271489Y21863D01*
X271625Y21848D01*
X271643Y21845D01*
X271648Y21846D01*
X271656Y21845D01*
X274952Y21845D01*
X274998Y21852D01*
X275044Y21850D01*
X275118Y21872D01*
X275195Y21884D01*
X275236Y21906D01*
X275280Y21919D01*
X275344Y21963D01*
X275413Y22000D01*
X275444Y22033D01*
X275482Y22059D01*
X275528Y22122D01*
X275582Y22178D01*
X275601Y22220D01*
X275629Y22256D01*
X275653Y22330D01*
X275686Y22401D01*
X275691Y22447D01*
X275705Y22490D01*
X275704Y22568D01*
X275713Y22645D01*
X275703Y22690D01*
X275702Y22736D01*
X275664Y22868D01*
X275660Y22886D01*
X275658Y22890D01*
X275656Y22897D01*
X274319Y26124D01*
X274319Y30772D01*
X276098Y35067D01*
X279385Y38354D01*
X283680Y40133D01*
X288328Y40133D01*
X292623Y38354D01*
X295910Y35067D01*
X297689Y30772D01*
X297689Y26124D01*
X297047Y24573D01*
X297024Y24479D01*
X296996Y24386D01*
X296996Y24359D01*
X296990Y24334D01*
X296999Y24237D01*
X297002Y24140D01*
X297011Y24115D01*
X297013Y24089D01*
X297053Y24000D01*
X297086Y23909D01*
X297103Y23888D01*
X297113Y23864D01*
X297179Y23793D01*
X297240Y23717D01*
X297262Y23702D01*
X297280Y23683D01*
X297365Y23636D01*
X297447Y23584D01*
X297472Y23577D01*
X297495Y23565D01*
X297591Y23547D01*
X297686Y23524D01*
X297712Y23526D01*
X297737Y23521D01*
X297834Y23535D01*
X297931Y23543D01*
X297955Y23553D01*
X297981Y23557D01*
X298068Y23601D01*
X298157Y23639D01*
X298183Y23659D01*
X298200Y23668D01*
X298223Y23692D01*
X298288Y23744D01*
X299638Y25093D01*
X299705Y25187D01*
X299775Y25282D01*
X299777Y25288D01*
X299781Y25293D01*
X299815Y25404D01*
X299852Y25516D01*
X299852Y25522D01*
X299853Y25528D01*
X299850Y25645D01*
X299849Y25762D01*
X299847Y25769D01*
X299847Y25774D01*
X299841Y25791D01*
X299803Y25923D01*
X299719Y26124D01*
X299719Y30772D01*
X301498Y35067D01*
X304785Y38354D01*
X309080Y40133D01*
X313728Y40133D01*
X318023Y38354D01*
X321310Y35067D01*
X323089Y30772D01*
X323089Y26124D01*
X321310Y21829D01*
X318023Y18542D01*
X313728Y16763D01*
X309080Y16763D01*
X308160Y17144D01*
X308047Y17171D01*
X307933Y17199D01*
X307927Y17199D01*
X307921Y17200D01*
X307804Y17189D01*
X307688Y17180D01*
X307682Y17178D01*
X307676Y17177D01*
X307568Y17129D01*
X307462Y17084D01*
X307456Y17079D01*
X307451Y17077D01*
X307438Y17064D01*
X307331Y16979D01*
X301870Y11518D01*
X299816Y10667D01*
X224440Y10667D01*
G37*
%LPD*%
%LPC*%
G36*
X44473Y373779D02*
X44473Y373779D01*
X36177Y376002D01*
X28738Y380297D01*
X22665Y386370D01*
X18370Y393809D01*
X16147Y402105D01*
X16147Y410695D01*
X18370Y418991D01*
X22665Y426430D01*
X28738Y432503D01*
X36177Y436798D01*
X44473Y439021D01*
X53063Y439021D01*
X61359Y436798D01*
X68798Y432503D01*
X74871Y426430D01*
X79166Y418991D01*
X81389Y410695D01*
X81389Y402105D01*
X79166Y393809D01*
X74871Y386370D01*
X68798Y380297D01*
X61359Y376002D01*
X53063Y373779D01*
X44473Y373779D01*
G37*
%LPD*%
%LPC*%
G36*
X450873Y64915D02*
X450873Y64915D01*
X442577Y67138D01*
X435138Y71433D01*
X429065Y77506D01*
X424770Y84945D01*
X422547Y93241D01*
X422547Y101831D01*
X424770Y110127D01*
X429065Y117566D01*
X435138Y123639D01*
X442577Y127934D01*
X450873Y130157D01*
X459463Y130157D01*
X467759Y127934D01*
X475198Y123639D01*
X481271Y117566D01*
X485566Y110127D01*
X487789Y101831D01*
X487789Y93241D01*
X485566Y84945D01*
X481271Y77506D01*
X475198Y71433D01*
X467759Y67138D01*
X459463Y64915D01*
X450873Y64915D01*
G37*
%LPD*%
%LPC*%
G36*
X170420Y125983D02*
X170420Y125983D01*
X163575Y132828D01*
X163575Y141134D01*
X163561Y141224D01*
X163553Y141315D01*
X163541Y141345D01*
X163536Y141377D01*
X163493Y141457D01*
X163457Y141541D01*
X163431Y141573D01*
X163420Y141594D01*
X163397Y141616D01*
X163352Y141672D01*
X119214Y185810D01*
X118363Y187864D01*
X118363Y231188D01*
X118349Y231278D01*
X118341Y231369D01*
X118329Y231399D01*
X118324Y231431D01*
X118281Y231511D01*
X118245Y231595D01*
X118219Y231627D01*
X118208Y231648D01*
X118185Y231670D01*
X118140Y231726D01*
X113870Y235996D01*
X113796Y236049D01*
X113727Y236109D01*
X113697Y236121D01*
X113671Y236140D01*
X113584Y236167D01*
X113499Y236201D01*
X113458Y236205D01*
X113435Y236212D01*
X113403Y236211D01*
X113332Y236219D01*
X64928Y236219D01*
X62874Y237070D01*
X57770Y242174D01*
X57696Y242227D01*
X57627Y242287D01*
X57597Y242299D01*
X57570Y242318D01*
X57483Y242345D01*
X57398Y242379D01*
X57358Y242383D01*
X57335Y242390D01*
X57303Y242389D01*
X57232Y242397D01*
X43474Y242397D01*
X41093Y244778D01*
X41093Y264646D01*
X43474Y267027D01*
X63342Y267027D01*
X65723Y264646D01*
X65723Y250344D01*
X65737Y250254D01*
X65745Y250163D01*
X65757Y250133D01*
X65762Y250101D01*
X65805Y250021D01*
X65841Y249937D01*
X65867Y249905D01*
X65878Y249884D01*
X65901Y249862D01*
X65946Y249806D01*
X68132Y247620D01*
X68206Y247567D01*
X68275Y247507D01*
X68305Y247495D01*
X68332Y247476D01*
X68419Y247449D01*
X68504Y247415D01*
X68544Y247411D01*
X68567Y247404D01*
X68599Y247405D01*
X68670Y247397D01*
X114348Y247397D01*
X114438Y247411D01*
X114529Y247419D01*
X114559Y247431D01*
X114591Y247436D01*
X114671Y247479D01*
X114755Y247515D01*
X114787Y247541D01*
X114808Y247552D01*
X114824Y247568D01*
X114826Y247569D01*
X114834Y247578D01*
X114886Y247620D01*
X118727Y251461D01*
X127145Y251461D01*
X133097Y245509D01*
X133097Y237091D01*
X129764Y233758D01*
X129711Y233684D01*
X129651Y233615D01*
X129639Y233585D01*
X129620Y233559D01*
X129593Y233472D01*
X129559Y233387D01*
X129555Y233346D01*
X129548Y233323D01*
X129549Y233291D01*
X129541Y233220D01*
X129541Y191606D01*
X129555Y191516D01*
X129563Y191425D01*
X129575Y191395D01*
X129580Y191364D01*
X129623Y191283D01*
X129659Y191199D01*
X129685Y191167D01*
X129696Y191146D01*
X129719Y191124D01*
X129764Y191068D01*
X171256Y149576D01*
X171330Y149523D01*
X171399Y149463D01*
X171430Y149451D01*
X171456Y149432D01*
X171543Y149405D01*
X171628Y149371D01*
X171668Y149367D01*
X171691Y149360D01*
X171723Y149361D01*
X171794Y149353D01*
X180100Y149353D01*
X186945Y142508D01*
X186945Y132828D01*
X180100Y125983D01*
X170420Y125983D01*
G37*
%LPD*%
%LPC*%
G36*
X50958Y280497D02*
X50958Y280497D01*
X46432Y282372D01*
X42968Y285836D01*
X41093Y290362D01*
X41093Y295262D01*
X42968Y299788D01*
X46432Y303252D01*
X50958Y305127D01*
X55858Y305127D01*
X60384Y303252D01*
X63848Y299788D01*
X63891Y299683D01*
X63953Y299583D01*
X64013Y299483D01*
X64018Y299479D01*
X64021Y299474D01*
X64111Y299399D01*
X64200Y299323D01*
X64206Y299321D01*
X64211Y299317D01*
X64319Y299275D01*
X64428Y299231D01*
X64436Y299230D01*
X64440Y299229D01*
X64458Y299228D01*
X64595Y299213D01*
X150786Y299213D01*
X150876Y299227D01*
X150967Y299235D01*
X150997Y299247D01*
X151028Y299252D01*
X151109Y299295D01*
X151193Y299331D01*
X151225Y299357D01*
X151246Y299368D01*
X151268Y299391D01*
X151324Y299436D01*
X163352Y311464D01*
X163405Y311538D01*
X163465Y311607D01*
X163477Y311638D01*
X163496Y311664D01*
X163523Y311751D01*
X163557Y311836D01*
X163561Y311876D01*
X163568Y311899D01*
X163567Y311931D01*
X163575Y312002D01*
X163575Y320308D01*
X170420Y327153D01*
X180100Y327153D01*
X186945Y320308D01*
X186945Y310628D01*
X180100Y303783D01*
X171794Y303783D01*
X171704Y303769D01*
X171613Y303761D01*
X171583Y303749D01*
X171552Y303744D01*
X171471Y303701D01*
X171387Y303665D01*
X171355Y303639D01*
X171334Y303628D01*
X171312Y303605D01*
X171256Y303560D01*
X156582Y288886D01*
X154528Y288035D01*
X65267Y288035D01*
X65153Y288016D01*
X65036Y287999D01*
X65031Y287997D01*
X65025Y287996D01*
X64922Y287941D01*
X64817Y287888D01*
X64813Y287883D01*
X64807Y287880D01*
X64727Y287796D01*
X64645Y287712D01*
X64641Y287706D01*
X64638Y287702D01*
X64630Y287685D01*
X64564Y287565D01*
X63848Y285836D01*
X60384Y282372D01*
X55858Y280497D01*
X50958Y280497D01*
G37*
%LPD*%
%LPC*%
G36*
X127048Y20065D02*
X127048Y20065D01*
X121429Y25684D01*
X121355Y25737D01*
X121285Y25797D01*
X121255Y25809D01*
X121229Y25828D01*
X121142Y25855D01*
X121057Y25889D01*
X121016Y25893D01*
X120994Y25900D01*
X120962Y25899D01*
X120890Y25907D01*
X66484Y25907D01*
X66464Y25904D01*
X66445Y25906D01*
X66343Y25884D01*
X66241Y25868D01*
X66224Y25858D01*
X66204Y25854D01*
X66115Y25801D01*
X66024Y25752D01*
X66010Y25738D01*
X65993Y25728D01*
X65926Y25649D01*
X65854Y25574D01*
X65846Y25556D01*
X65833Y25541D01*
X65794Y25445D01*
X65751Y25351D01*
X65751Y25350D01*
X63342Y22941D01*
X43474Y22941D01*
X41093Y25322D01*
X41093Y45190D01*
X43474Y47571D01*
X63342Y47571D01*
X65723Y45190D01*
X65723Y37846D01*
X65726Y37826D01*
X65724Y37807D01*
X65746Y37705D01*
X65762Y37603D01*
X65772Y37586D01*
X65776Y37566D01*
X65829Y37477D01*
X65878Y37386D01*
X65892Y37372D01*
X65902Y37355D01*
X65981Y37288D01*
X66056Y37216D01*
X66074Y37208D01*
X66089Y37195D01*
X66185Y37156D01*
X66279Y37113D01*
X66299Y37111D01*
X66317Y37103D01*
X66484Y37085D01*
X121906Y37085D01*
X121996Y37099D01*
X122087Y37107D01*
X122117Y37119D01*
X122149Y37124D01*
X122230Y37167D01*
X122314Y37203D01*
X122346Y37229D01*
X122366Y37240D01*
X122389Y37263D01*
X122445Y37308D01*
X127048Y41911D01*
X136096Y41911D01*
X142495Y35512D01*
X142495Y26464D01*
X136096Y20065D01*
X127048Y20065D01*
G37*
%LPD*%
%LPC*%
G36*
X386951Y12699D02*
X386951Y12699D01*
X381586Y18064D01*
X381512Y18117D01*
X381443Y18177D01*
X381413Y18189D01*
X381387Y18208D01*
X381300Y18235D01*
X381215Y18269D01*
X381174Y18273D01*
X381151Y18280D01*
X381119Y18279D01*
X381048Y18287D01*
X364696Y18287D01*
X364606Y18273D01*
X364515Y18265D01*
X364485Y18253D01*
X364453Y18248D01*
X364373Y18205D01*
X364289Y18169D01*
X364257Y18143D01*
X364236Y18132D01*
X364228Y18124D01*
X364227Y18123D01*
X364212Y18108D01*
X364158Y18064D01*
X360825Y14731D01*
X352407Y14731D01*
X346455Y20683D01*
X346455Y29101D01*
X352407Y35053D01*
X360825Y35053D01*
X366797Y29080D01*
X366800Y29069D01*
X366816Y28967D01*
X366826Y28950D01*
X366830Y28930D01*
X366883Y28841D01*
X366932Y28750D01*
X366946Y28736D01*
X366956Y28719D01*
X367035Y28652D01*
X367110Y28580D01*
X367128Y28572D01*
X367143Y28559D01*
X367239Y28520D01*
X367333Y28477D01*
X367353Y28475D01*
X367371Y28467D01*
X367538Y28449D01*
X382064Y28449D01*
X382154Y28463D01*
X382245Y28471D01*
X382275Y28483D01*
X382307Y28488D01*
X382387Y28531D01*
X382471Y28567D01*
X382503Y28593D01*
X382524Y28604D01*
X382546Y28627D01*
X382602Y28672D01*
X386951Y33021D01*
X395369Y33021D01*
X401321Y27069D01*
X401321Y18651D01*
X395369Y12699D01*
X386951Y12699D01*
G37*
%LPD*%
%LPC*%
G36*
X354439Y416051D02*
X354439Y416051D01*
X348487Y422003D01*
X348487Y430421D01*
X354439Y436373D01*
X362857Y436373D01*
X367206Y432024D01*
X367280Y431971D01*
X367349Y431911D01*
X367379Y431899D01*
X367405Y431880D01*
X367492Y431853D01*
X367577Y431819D01*
X367618Y431815D01*
X367641Y431808D01*
X367673Y431809D01*
X367744Y431801D01*
X378000Y431801D01*
X378090Y431815D01*
X378181Y431823D01*
X378211Y431835D01*
X378243Y431840D01*
X378323Y431883D01*
X378407Y431919D01*
X378439Y431945D01*
X378460Y431956D01*
X378482Y431979D01*
X378538Y432024D01*
X382887Y436373D01*
X391305Y436373D01*
X397257Y430421D01*
X397257Y422003D01*
X391305Y416051D01*
X382887Y416051D01*
X377522Y421416D01*
X377448Y421469D01*
X377379Y421529D01*
X377349Y421541D01*
X377323Y421560D01*
X377236Y421587D01*
X377151Y421621D01*
X377110Y421625D01*
X377087Y421632D01*
X377055Y421631D01*
X376984Y421639D01*
X368760Y421639D01*
X368670Y421625D01*
X368579Y421617D01*
X368549Y421605D01*
X368517Y421600D01*
X368437Y421557D01*
X368353Y421521D01*
X368321Y421495D01*
X368300Y421484D01*
X368278Y421461D01*
X368222Y421416D01*
X362857Y416051D01*
X354439Y416051D01*
G37*
%LPD*%
%LPC*%
G36*
X309588Y393191D02*
X309588Y393191D01*
X305293Y394970D01*
X302006Y398257D01*
X300227Y402552D01*
X300227Y407200D01*
X302006Y411495D01*
X305293Y414782D01*
X309588Y416561D01*
X314236Y416561D01*
X318531Y414782D01*
X321818Y411495D01*
X323597Y407200D01*
X323597Y402552D01*
X321818Y398257D01*
X318531Y394970D01*
X314236Y393191D01*
X309588Y393191D01*
G37*
%LPD*%
%LPC*%
G36*
X263360Y164083D02*
X263360Y164083D01*
X259065Y165862D01*
X255778Y169149D01*
X253999Y173444D01*
X253999Y178092D01*
X255778Y182387D01*
X259065Y185674D01*
X263360Y187453D01*
X268008Y187453D01*
X272303Y185674D01*
X275590Y182387D01*
X277369Y178092D01*
X277369Y173444D01*
X275590Y169149D01*
X272303Y165862D01*
X268008Y164083D01*
X263360Y164083D01*
G37*
%LPD*%
%LPC*%
G36*
X258280Y92963D02*
X258280Y92963D01*
X253985Y94742D01*
X250698Y98029D01*
X248919Y102324D01*
X248919Y106972D01*
X250698Y111267D01*
X253985Y114554D01*
X258280Y116333D01*
X262928Y116333D01*
X267223Y114554D01*
X270510Y111267D01*
X272289Y106972D01*
X272289Y102324D01*
X270510Y98029D01*
X267223Y94742D01*
X262928Y92963D01*
X258280Y92963D01*
G37*
%LPD*%
%LPC*%
G36*
X309080Y92963D02*
X309080Y92963D01*
X304785Y94742D01*
X301498Y98029D01*
X299719Y102324D01*
X299719Y106972D01*
X301498Y111267D01*
X304785Y114554D01*
X309080Y116333D01*
X313728Y116333D01*
X318023Y114554D01*
X321310Y111267D01*
X323089Y106972D01*
X323089Y102324D01*
X321310Y98029D01*
X318023Y94742D01*
X313728Y92963D01*
X309080Y92963D01*
G37*
%LPD*%
%LPC*%
G36*
X450087Y34035D02*
X450087Y34035D01*
X450087Y50178D01*
X450943Y50043D01*
X452464Y49548D01*
X453889Y48822D01*
X455183Y47882D01*
X456314Y46751D01*
X457254Y45457D01*
X457980Y44032D01*
X458475Y42511D01*
X458725Y40932D01*
X458725Y34035D01*
X450087Y34035D01*
G37*
%LPD*%
%LPC*%
G36*
X450087Y30989D02*
X450087Y30989D01*
X458725Y30989D01*
X458725Y24092D01*
X458475Y22513D01*
X457980Y20992D01*
X457254Y19567D01*
X456314Y18273D01*
X455183Y17142D01*
X453889Y16202D01*
X452464Y15476D01*
X450943Y14981D01*
X450087Y14846D01*
X450087Y30989D01*
G37*
%LPD*%
%LPC*%
G36*
X438403Y34035D02*
X438403Y34035D01*
X438403Y40932D01*
X438653Y42511D01*
X439148Y44032D01*
X439874Y45457D01*
X440814Y46751D01*
X441945Y47882D01*
X443239Y48822D01*
X444664Y49548D01*
X446185Y50043D01*
X447041Y50178D01*
X447041Y34035D01*
X438403Y34035D01*
G37*
%LPD*%
%LPC*%
G36*
X446185Y14981D02*
X446185Y14981D01*
X444664Y15476D01*
X443239Y16202D01*
X441945Y17142D01*
X440814Y18273D01*
X439874Y19567D01*
X439148Y20992D01*
X438653Y22513D01*
X438403Y24092D01*
X438403Y30989D01*
X447041Y30989D01*
X447041Y14846D01*
X446185Y14981D01*
G37*
%LPD*%
%LPC*%
G36*
X54931Y74879D02*
X54931Y74879D01*
X54931Y84040D01*
X55935Y83881D01*
X57550Y83356D01*
X59063Y82585D01*
X60438Y81587D01*
X61639Y80386D01*
X62637Y79011D01*
X63408Y77498D01*
X63933Y75883D01*
X64092Y74879D01*
X54931Y74879D01*
G37*
%LPD*%
%LPC*%
G36*
X42724Y74879D02*
X42724Y74879D01*
X42883Y75883D01*
X43408Y77498D01*
X44179Y79011D01*
X45177Y80386D01*
X46378Y81587D01*
X47753Y82585D01*
X49266Y83356D01*
X50881Y83881D01*
X51885Y84040D01*
X51885Y74879D01*
X42724Y74879D01*
G37*
%LPD*%
%LPC*%
G36*
X54931Y71833D02*
X54931Y71833D01*
X64092Y71833D01*
X63933Y70829D01*
X63408Y69214D01*
X62637Y67701D01*
X61639Y66326D01*
X60438Y65125D01*
X59063Y64127D01*
X57550Y63356D01*
X55935Y62831D01*
X54931Y62672D01*
X54931Y71833D01*
G37*
%LPD*%
%LPC*%
G36*
X50881Y62831D02*
X50881Y62831D01*
X49266Y63356D01*
X47753Y64127D01*
X46378Y65125D01*
X45177Y66326D01*
X44179Y67701D01*
X43408Y69214D01*
X42883Y70829D01*
X42724Y71833D01*
X51885Y71833D01*
X51885Y62672D01*
X50881Y62831D01*
G37*
%LPD*%
%LPC*%
G36*
X181863Y423163D02*
X181863Y423163D01*
X181863Y431039D01*
X184233Y431039D01*
X189739Y425533D01*
X189739Y423163D01*
X181863Y423163D01*
G37*
%LPD*%
%LPC*%
G36*
X133095Y422147D02*
X133095Y422147D01*
X133095Y430023D01*
X135465Y430023D01*
X140971Y424517D01*
X140971Y422147D01*
X133095Y422147D01*
G37*
%LPD*%
%LPC*%
G36*
X133095Y108711D02*
X133095Y108711D01*
X133095Y116587D01*
X135465Y116587D01*
X140971Y111081D01*
X140971Y108711D01*
X133095Y108711D01*
G37*
%LPD*%
%LPC*%
G36*
X390143Y187959D02*
X390143Y187959D01*
X390143Y195835D01*
X392513Y195835D01*
X398019Y190329D01*
X398019Y187959D01*
X390143Y187959D01*
G37*
%LPD*%
%LPC*%
G36*
X447039Y188975D02*
X447039Y188975D01*
X447039Y196851D01*
X449409Y196851D01*
X454915Y191345D01*
X454915Y188975D01*
X447039Y188975D01*
G37*
%LPD*%
%LPC*%
G36*
X170941Y423163D02*
X170941Y423163D01*
X170941Y425533D01*
X176447Y431039D01*
X178817Y431039D01*
X178817Y423163D01*
X170941Y423163D01*
G37*
%LPD*%
%LPC*%
G36*
X181863Y412241D02*
X181863Y412241D01*
X181863Y420117D01*
X189739Y420117D01*
X189739Y417747D01*
X184233Y412241D01*
X181863Y412241D01*
G37*
%LPD*%
%LPC*%
G36*
X133095Y411225D02*
X133095Y411225D01*
X133095Y419101D01*
X140971Y419101D01*
X140971Y416731D01*
X135465Y411225D01*
X133095Y411225D01*
G37*
%LPD*%
%LPC*%
G36*
X179069Y109219D02*
X179069Y109219D01*
X179069Y111589D01*
X184575Y117095D01*
X186945Y117095D01*
X186945Y109219D01*
X179069Y109219D01*
G37*
%LPD*%
%LPC*%
G36*
X379221Y187959D02*
X379221Y187959D01*
X379221Y190329D01*
X384727Y195835D01*
X387097Y195835D01*
X387097Y187959D01*
X379221Y187959D01*
G37*
%LPD*%
%LPC*%
G36*
X390143Y177037D02*
X390143Y177037D01*
X390143Y184913D01*
X398019Y184913D01*
X398019Y182543D01*
X392513Y177037D01*
X390143Y177037D01*
G37*
%LPD*%
%LPC*%
G36*
X122173Y422147D02*
X122173Y422147D01*
X122173Y424517D01*
X127679Y430023D01*
X130049Y430023D01*
X130049Y422147D01*
X122173Y422147D01*
G37*
%LPD*%
%LPC*%
G36*
X447039Y178053D02*
X447039Y178053D01*
X447039Y185929D01*
X454915Y185929D01*
X454915Y183559D01*
X449409Y178053D01*
X447039Y178053D01*
G37*
%LPD*%
%LPC*%
G36*
X436117Y188975D02*
X436117Y188975D01*
X436117Y191345D01*
X441623Y196851D01*
X443993Y196851D01*
X443993Y188975D01*
X436117Y188975D01*
G37*
%LPD*%
%LPC*%
G36*
X176447Y412241D02*
X176447Y412241D01*
X170941Y417747D01*
X170941Y420117D01*
X178817Y420117D01*
X178817Y412241D01*
X176447Y412241D01*
G37*
%LPD*%
%LPC*%
G36*
X127679Y411225D02*
X127679Y411225D01*
X122173Y416731D01*
X122173Y419101D01*
X130049Y419101D01*
X130049Y411225D01*
X127679Y411225D01*
G37*
%LPD*%
%LPC*%
G36*
X384727Y177037D02*
X384727Y177037D01*
X379221Y182543D01*
X379221Y184913D01*
X387097Y184913D01*
X387097Y177037D01*
X384727Y177037D01*
G37*
%LPD*%
%LPC*%
G36*
X441623Y178053D02*
X441623Y178053D01*
X436117Y183559D01*
X436117Y185929D01*
X443993Y185929D01*
X443993Y178053D01*
X441623Y178053D01*
G37*
%LPD*%
%LPC*%
G36*
X388619Y326135D02*
X388619Y326135D01*
X388619Y333249D01*
X390673Y333249D01*
X395733Y328189D01*
X395733Y326135D01*
X388619Y326135D01*
G37*
%LPD*%
%LPC*%
G36*
X124459Y141223D02*
X124459Y141223D01*
X124459Y148337D01*
X126513Y148337D01*
X131573Y143277D01*
X131573Y141223D01*
X124459Y141223D01*
G37*
%LPD*%
%LPC*%
G36*
X378459Y326135D02*
X378459Y326135D01*
X378459Y328189D01*
X383519Y333249D01*
X385573Y333249D01*
X385573Y326135D01*
X378459Y326135D01*
G37*
%LPD*%
%LPC*%
G36*
X388619Y315975D02*
X388619Y315975D01*
X388619Y323089D01*
X395733Y323089D01*
X395733Y321035D01*
X390673Y315975D01*
X388619Y315975D01*
G37*
%LPD*%
%LPC*%
G36*
X124459Y131063D02*
X124459Y131063D01*
X124459Y138177D01*
X131573Y138177D01*
X131573Y136123D01*
X126513Y131063D01*
X124459Y131063D01*
G37*
%LPD*%
%LPC*%
G36*
X114299Y141223D02*
X114299Y141223D01*
X114299Y143277D01*
X119359Y148337D01*
X121413Y148337D01*
X121413Y141223D01*
X114299Y141223D01*
G37*
%LPD*%
%LPC*%
G36*
X383519Y315975D02*
X383519Y315975D01*
X378459Y321035D01*
X378459Y323089D01*
X385573Y323089D01*
X385573Y315975D01*
X383519Y315975D01*
G37*
%LPD*%
%LPC*%
G36*
X119359Y131063D02*
X119359Y131063D01*
X114299Y136123D01*
X114299Y138177D01*
X121413Y138177D01*
X121413Y131063D01*
X119359Y131063D01*
G37*
%LPD*%
%LPC*%
G36*
X180339Y421639D02*
X180339Y421639D01*
X180339Y421641D01*
X180341Y421641D01*
X180341Y421639D01*
X180339Y421639D01*
G37*
%LPD*%
%LPC*%
G36*
X131571Y420623D02*
X131571Y420623D01*
X131571Y420625D01*
X131573Y420625D01*
X131573Y420623D01*
X131571Y420623D01*
G37*
%LPD*%
%LPC*%
G36*
X387095Y324611D02*
X387095Y324611D01*
X387095Y324613D01*
X387097Y324613D01*
X387097Y324611D01*
X387095Y324611D01*
G37*
%LPD*%
%LPC*%
G36*
X445515Y187451D02*
X445515Y187451D01*
X445515Y187453D01*
X445517Y187453D01*
X445517Y187451D01*
X445515Y187451D01*
G37*
%LPD*%
%LPC*%
G36*
X122935Y139699D02*
X122935Y139699D01*
X122935Y139701D01*
X122937Y139701D01*
X122937Y139699D01*
X122935Y139699D01*
G37*
%LPD*%
%LPC*%
G36*
X53407Y73355D02*
X53407Y73355D01*
X53407Y73357D01*
X53409Y73357D01*
X53409Y73355D01*
X53407Y73355D01*
G37*
%LPD*%
%LPC*%
G36*
X448563Y32511D02*
X448563Y32511D01*
X448563Y32513D01*
X448565Y32513D01*
X448565Y32511D01*
X448563Y32511D01*
G37*
%LPD*%
%LPC*%
G36*
X388619Y186435D02*
X388619Y186435D01*
X388619Y186437D01*
X388621Y186437D01*
X388621Y186435D01*
X388619Y186435D01*
G37*
%LPD*%
D10*
X188468Y31496D03*
X188468Y107696D03*
X131572Y30988D03*
X131572Y107188D03*
X180340Y345440D03*
X180340Y421640D03*
D11*
X388620Y262636D03*
X388620Y186436D03*
D10*
X131572Y344424D03*
X131572Y420624D03*
D11*
X445516Y263652D03*
X445516Y187452D03*
D12*
X226060Y289560D03*
X327660Y289560D03*
X213868Y137160D03*
X315468Y137160D03*
D13*
X358648Y324612D03*
X358648Y426212D03*
D14*
X387096Y426212D03*
X387096Y324612D03*
X356616Y126492D03*
X356616Y24892D03*
D13*
X391160Y22860D03*
X391160Y124460D03*
D15*
X175260Y137668D03*
X175260Y315468D03*
D14*
X122936Y241300D03*
X122936Y139700D03*
X224536Y264668D03*
X224536Y163068D03*
D16*
X235712Y328676D03*
D17*
X261112Y328676D03*
X286512Y328676D03*
X311912Y328676D03*
X311912Y404876D03*
X286512Y404876D03*
X261112Y404876D03*
X235712Y404876D03*
D16*
X235204Y28448D03*
D17*
X260604Y28448D03*
X286004Y28448D03*
X311404Y28448D03*
X311404Y104648D03*
X286004Y104648D03*
X260604Y104648D03*
X235204Y104648D03*
D16*
X341884Y251968D03*
D17*
X316484Y251968D03*
X291084Y251968D03*
X265684Y251968D03*
X265684Y175768D03*
X291084Y175768D03*
X316484Y175768D03*
X341884Y175768D03*
D18*
X423164Y40132D02*
X423164Y24892D01*
X448564Y24892D02*
X448564Y40132D01*
D19*
X53408Y254712D03*
D20*
X53408Y292812D03*
D19*
X53408Y35256D03*
D20*
X53408Y73356D03*
X53408Y111456D03*
D21*
X122936Y115824D02*
X122936Y139700D01*
X122936Y115824D02*
X131572Y107188D01*
X132080Y107696D02*
X188468Y107696D01*
X132080Y107696D02*
X131572Y107188D01*
X131572Y420624D02*
X178816Y420624D01*
X179832Y421640D01*
X180340Y421640D01*
X180848Y420624D02*
X288544Y420624D01*
X299720Y409448D01*
X299720Y399288D01*
X373888Y325120D01*
X387096Y325120D01*
X180848Y420624D02*
X180340Y421640D01*
X387096Y325120D02*
X387096Y324612D01*
X153416Y293624D02*
X53848Y293624D01*
X153416Y293624D02*
X175260Y315468D01*
X53848Y293624D02*
X53408Y292812D01*
X66040Y241808D02*
X122936Y241808D01*
X66040Y241808D02*
X53848Y254000D01*
X122936Y241808D02*
X122936Y241300D01*
X53848Y254000D02*
X53408Y254712D01*
X123952Y240792D02*
X123952Y188976D01*
X175260Y137668D01*
X123952Y240792D02*
X122936Y241300D01*
D22*
X224536Y264668D02*
X224536Y288544D01*
X225552Y289560D01*
X226060Y289560D01*
X261112Y324104D02*
X261112Y328676D01*
X261112Y324104D02*
X226568Y289560D01*
X226060Y289560D01*
X214376Y152400D02*
X214376Y137160D01*
X214376Y152400D02*
X224536Y162560D01*
X224536Y163068D01*
X260096Y64008D02*
X260096Y28448D01*
X260096Y64008D02*
X214376Y109728D01*
X214376Y137160D01*
X260096Y28448D02*
X260604Y28448D01*
X214376Y137160D02*
X213868Y137160D01*
X315468Y137160D02*
X346456Y137160D01*
X356616Y127000D01*
X356616Y126492D01*
X286512Y108712D02*
X286512Y104648D01*
X286512Y108712D02*
X314960Y137160D01*
X286512Y104648D02*
X286004Y104648D01*
X314960Y137160D02*
X315468Y137160D01*
X328168Y289560D02*
X328168Y293624D01*
X358648Y324104D01*
X328168Y289560D02*
X327660Y289560D01*
X358648Y324104D02*
X358648Y324612D01*
X286512Y397256D02*
X286512Y404876D01*
X286512Y397256D02*
X358648Y325120D01*
X358648Y324612D01*
X358648Y426720D02*
X387096Y426720D01*
X358648Y426720D02*
X358648Y426212D01*
X387096Y426212D02*
X387096Y426720D01*
X391160Y23368D02*
X357632Y23368D01*
X356616Y24384D01*
X391160Y23368D02*
X391160Y22860D01*
X356616Y24384D02*
X356616Y24892D01*
D21*
X391160Y64008D02*
X391160Y124460D01*
X391160Y64008D02*
X422656Y32512D01*
X423164Y32512D01*
X298704Y175768D02*
X291084Y175768D01*
X298704Y175768D02*
X331216Y143256D01*
X371856Y143256D01*
X390144Y124968D01*
X391160Y124460D01*
X162560Y344424D02*
X131572Y344424D01*
X162560Y344424D02*
X210312Y392176D01*
X248920Y392176D01*
X261112Y404368D01*
X261112Y404876D01*
X131064Y31496D02*
X56896Y31496D01*
X53848Y34544D01*
X131064Y31496D02*
X131572Y30988D01*
X53848Y34544D02*
X53408Y35256D01*
X405384Y263144D02*
X445008Y263144D01*
X405384Y263144D02*
X318008Y175768D01*
X316484Y175768D01*
X445008Y263144D02*
X445516Y263652D01*
X388112Y263144D02*
X352552Y263144D01*
X351536Y264160D01*
X312928Y264160D02*
X278384Y264160D01*
X312928Y264160D02*
X351536Y264160D01*
X278384Y264160D02*
X266192Y251968D01*
X388112Y263144D02*
X388620Y262636D01*
X266192Y251968D02*
X265684Y251968D01*
X295656Y345440D02*
X180340Y345440D01*
X295656Y345440D02*
X311912Y329184D01*
X311912Y328676D01*
X312928Y328168D02*
X312928Y264160D01*
X312928Y328168D02*
X311912Y328676D01*
X210312Y31496D02*
X188468Y31496D01*
X210312Y31496D02*
X225552Y16256D01*
X298704Y16256D01*
X310896Y28448D01*
X311404Y28448D01*
X109728Y110744D02*
X53848Y110744D01*
X159512Y60960D02*
X187960Y32512D01*
X159512Y60960D02*
X109728Y110744D01*
X53848Y110744D02*
X53408Y111456D01*
X187960Y32512D02*
X188468Y31496D01*
X265176Y219456D02*
X265176Y250952D01*
X265176Y219456D02*
X200152Y154432D01*
X200152Y101600D01*
X159512Y60960D01*
X265176Y250952D02*
X265684Y251968D01*
M02*
