G04 EAGLE Gerber RS-274X export*
G75*
%MOMM*%
%FSLAX34Y34*%
%LPD*%
%IN*%
%IPPOS*%
%AMOC8*
5,1,8,0,0,1.08239X$1,22.5*%
G01*
%ADD10C,0.000000*%
%ADD11C,0.254000*%


D10*
X0Y0D02*
X500000Y0D01*
X500000Y450000D01*
X0Y450000D01*
X0Y0D01*
X23768Y406400D02*
X23776Y407014D01*
X23798Y407627D01*
X23836Y408239D01*
X23888Y408850D01*
X23956Y409460D01*
X24039Y410068D01*
X24136Y410674D01*
X24248Y411277D01*
X24375Y411878D01*
X24517Y412475D01*
X24674Y413068D01*
X24844Y413657D01*
X25030Y414242D01*
X25229Y414822D01*
X25443Y415397D01*
X25671Y415967D01*
X25913Y416531D01*
X26168Y417089D01*
X26437Y417640D01*
X26720Y418185D01*
X27016Y418722D01*
X27325Y419253D01*
X27647Y419775D01*
X27981Y420289D01*
X28328Y420795D01*
X28688Y421292D01*
X29059Y421781D01*
X29443Y422260D01*
X29838Y422729D01*
X30244Y423189D01*
X30662Y423639D01*
X31090Y424078D01*
X31529Y424506D01*
X31979Y424924D01*
X32439Y425330D01*
X32908Y425725D01*
X33387Y426109D01*
X33876Y426480D01*
X34373Y426840D01*
X34879Y427187D01*
X35393Y427521D01*
X35915Y427843D01*
X36446Y428152D01*
X36983Y428448D01*
X37528Y428731D01*
X38079Y429000D01*
X38637Y429255D01*
X39201Y429497D01*
X39771Y429725D01*
X40346Y429939D01*
X40926Y430138D01*
X41511Y430324D01*
X42100Y430494D01*
X42693Y430651D01*
X43290Y430793D01*
X43891Y430920D01*
X44494Y431032D01*
X45100Y431129D01*
X45708Y431212D01*
X46318Y431280D01*
X46929Y431332D01*
X47541Y431370D01*
X48154Y431392D01*
X48768Y431400D01*
X49382Y431392D01*
X49995Y431370D01*
X50607Y431332D01*
X51218Y431280D01*
X51828Y431212D01*
X52436Y431129D01*
X53042Y431032D01*
X53645Y430920D01*
X54246Y430793D01*
X54843Y430651D01*
X55436Y430494D01*
X56025Y430324D01*
X56610Y430138D01*
X57190Y429939D01*
X57765Y429725D01*
X58335Y429497D01*
X58899Y429255D01*
X59457Y429000D01*
X60008Y428731D01*
X60553Y428448D01*
X61090Y428152D01*
X61621Y427843D01*
X62143Y427521D01*
X62657Y427187D01*
X63163Y426840D01*
X63660Y426480D01*
X64149Y426109D01*
X64628Y425725D01*
X65097Y425330D01*
X65557Y424924D01*
X66007Y424506D01*
X66446Y424078D01*
X66874Y423639D01*
X67292Y423189D01*
X67698Y422729D01*
X68093Y422260D01*
X68477Y421781D01*
X68848Y421292D01*
X69208Y420795D01*
X69555Y420289D01*
X69889Y419775D01*
X70211Y419253D01*
X70520Y418722D01*
X70816Y418185D01*
X71099Y417640D01*
X71368Y417089D01*
X71623Y416531D01*
X71865Y415967D01*
X72093Y415397D01*
X72307Y414822D01*
X72506Y414242D01*
X72692Y413657D01*
X72862Y413068D01*
X73019Y412475D01*
X73161Y411878D01*
X73288Y411277D01*
X73400Y410674D01*
X73497Y410068D01*
X73580Y409460D01*
X73648Y408850D01*
X73700Y408239D01*
X73738Y407627D01*
X73760Y407014D01*
X73768Y406400D01*
X73760Y405786D01*
X73738Y405173D01*
X73700Y404561D01*
X73648Y403950D01*
X73580Y403340D01*
X73497Y402732D01*
X73400Y402126D01*
X73288Y401523D01*
X73161Y400922D01*
X73019Y400325D01*
X72862Y399732D01*
X72692Y399143D01*
X72506Y398558D01*
X72307Y397978D01*
X72093Y397403D01*
X71865Y396833D01*
X71623Y396269D01*
X71368Y395711D01*
X71099Y395160D01*
X70816Y394615D01*
X70520Y394078D01*
X70211Y393547D01*
X69889Y393025D01*
X69555Y392511D01*
X69208Y392005D01*
X68848Y391508D01*
X68477Y391019D01*
X68093Y390540D01*
X67698Y390071D01*
X67292Y389611D01*
X66874Y389161D01*
X66446Y388722D01*
X66007Y388294D01*
X65557Y387876D01*
X65097Y387470D01*
X64628Y387075D01*
X64149Y386691D01*
X63660Y386320D01*
X63163Y385960D01*
X62657Y385613D01*
X62143Y385279D01*
X61621Y384957D01*
X61090Y384648D01*
X60553Y384352D01*
X60008Y384069D01*
X59457Y383800D01*
X58899Y383545D01*
X58335Y383303D01*
X57765Y383075D01*
X57190Y382861D01*
X56610Y382662D01*
X56025Y382476D01*
X55436Y382306D01*
X54843Y382149D01*
X54246Y382007D01*
X53645Y381880D01*
X53042Y381768D01*
X52436Y381671D01*
X51828Y381588D01*
X51218Y381520D01*
X50607Y381468D01*
X49995Y381430D01*
X49382Y381408D01*
X48768Y381400D01*
X48154Y381408D01*
X47541Y381430D01*
X46929Y381468D01*
X46318Y381520D01*
X45708Y381588D01*
X45100Y381671D01*
X44494Y381768D01*
X43891Y381880D01*
X43290Y382007D01*
X42693Y382149D01*
X42100Y382306D01*
X41511Y382476D01*
X40926Y382662D01*
X40346Y382861D01*
X39771Y383075D01*
X39201Y383303D01*
X38637Y383545D01*
X38079Y383800D01*
X37528Y384069D01*
X36983Y384352D01*
X36446Y384648D01*
X35915Y384957D01*
X35393Y385279D01*
X34879Y385613D01*
X34373Y385960D01*
X33876Y386320D01*
X33387Y386691D01*
X32908Y387075D01*
X32439Y387470D01*
X31979Y387876D01*
X31529Y388294D01*
X31090Y388722D01*
X30662Y389161D01*
X30244Y389611D01*
X29838Y390071D01*
X29443Y390540D01*
X29059Y391019D01*
X28688Y391508D01*
X28328Y392005D01*
X27981Y392511D01*
X27647Y393025D01*
X27325Y393547D01*
X27016Y394078D01*
X26720Y394615D01*
X26437Y395160D01*
X26168Y395711D01*
X25913Y396269D01*
X25671Y396833D01*
X25443Y397403D01*
X25229Y397978D01*
X25030Y398558D01*
X24844Y399143D01*
X24674Y399732D01*
X24517Y400325D01*
X24375Y400922D01*
X24248Y401523D01*
X24136Y402126D01*
X24039Y402732D01*
X23956Y403340D01*
X23888Y403950D01*
X23836Y404561D01*
X23798Y405173D01*
X23776Y405786D01*
X23768Y406400D01*
X430168Y97536D02*
X430176Y98150D01*
X430198Y98763D01*
X430236Y99375D01*
X430288Y99986D01*
X430356Y100596D01*
X430439Y101204D01*
X430536Y101810D01*
X430648Y102413D01*
X430775Y103014D01*
X430917Y103611D01*
X431074Y104204D01*
X431244Y104793D01*
X431430Y105378D01*
X431629Y105958D01*
X431843Y106533D01*
X432071Y107103D01*
X432313Y107667D01*
X432568Y108225D01*
X432837Y108776D01*
X433120Y109321D01*
X433416Y109858D01*
X433725Y110389D01*
X434047Y110911D01*
X434381Y111425D01*
X434728Y111931D01*
X435088Y112428D01*
X435459Y112917D01*
X435843Y113396D01*
X436238Y113865D01*
X436644Y114325D01*
X437062Y114775D01*
X437490Y115214D01*
X437929Y115642D01*
X438379Y116060D01*
X438839Y116466D01*
X439308Y116861D01*
X439787Y117245D01*
X440276Y117616D01*
X440773Y117976D01*
X441279Y118323D01*
X441793Y118657D01*
X442315Y118979D01*
X442846Y119288D01*
X443383Y119584D01*
X443928Y119867D01*
X444479Y120136D01*
X445037Y120391D01*
X445601Y120633D01*
X446171Y120861D01*
X446746Y121075D01*
X447326Y121274D01*
X447911Y121460D01*
X448500Y121630D01*
X449093Y121787D01*
X449690Y121929D01*
X450291Y122056D01*
X450894Y122168D01*
X451500Y122265D01*
X452108Y122348D01*
X452718Y122416D01*
X453329Y122468D01*
X453941Y122506D01*
X454554Y122528D01*
X455168Y122536D01*
X455782Y122528D01*
X456395Y122506D01*
X457007Y122468D01*
X457618Y122416D01*
X458228Y122348D01*
X458836Y122265D01*
X459442Y122168D01*
X460045Y122056D01*
X460646Y121929D01*
X461243Y121787D01*
X461836Y121630D01*
X462425Y121460D01*
X463010Y121274D01*
X463590Y121075D01*
X464165Y120861D01*
X464735Y120633D01*
X465299Y120391D01*
X465857Y120136D01*
X466408Y119867D01*
X466953Y119584D01*
X467490Y119288D01*
X468021Y118979D01*
X468543Y118657D01*
X469057Y118323D01*
X469563Y117976D01*
X470060Y117616D01*
X470549Y117245D01*
X471028Y116861D01*
X471497Y116466D01*
X471957Y116060D01*
X472407Y115642D01*
X472846Y115214D01*
X473274Y114775D01*
X473692Y114325D01*
X474098Y113865D01*
X474493Y113396D01*
X474877Y112917D01*
X475248Y112428D01*
X475608Y111931D01*
X475955Y111425D01*
X476289Y110911D01*
X476611Y110389D01*
X476920Y109858D01*
X477216Y109321D01*
X477499Y108776D01*
X477768Y108225D01*
X478023Y107667D01*
X478265Y107103D01*
X478493Y106533D01*
X478707Y105958D01*
X478906Y105378D01*
X479092Y104793D01*
X479262Y104204D01*
X479419Y103611D01*
X479561Y103014D01*
X479688Y102413D01*
X479800Y101810D01*
X479897Y101204D01*
X479980Y100596D01*
X480048Y99986D01*
X480100Y99375D01*
X480138Y98763D01*
X480160Y98150D01*
X480168Y97536D01*
X480160Y96922D01*
X480138Y96309D01*
X480100Y95697D01*
X480048Y95086D01*
X479980Y94476D01*
X479897Y93868D01*
X479800Y93262D01*
X479688Y92659D01*
X479561Y92058D01*
X479419Y91461D01*
X479262Y90868D01*
X479092Y90279D01*
X478906Y89694D01*
X478707Y89114D01*
X478493Y88539D01*
X478265Y87969D01*
X478023Y87405D01*
X477768Y86847D01*
X477499Y86296D01*
X477216Y85751D01*
X476920Y85214D01*
X476611Y84683D01*
X476289Y84161D01*
X475955Y83647D01*
X475608Y83141D01*
X475248Y82644D01*
X474877Y82155D01*
X474493Y81676D01*
X474098Y81207D01*
X473692Y80747D01*
X473274Y80297D01*
X472846Y79858D01*
X472407Y79430D01*
X471957Y79012D01*
X471497Y78606D01*
X471028Y78211D01*
X470549Y77827D01*
X470060Y77456D01*
X469563Y77096D01*
X469057Y76749D01*
X468543Y76415D01*
X468021Y76093D01*
X467490Y75784D01*
X466953Y75488D01*
X466408Y75205D01*
X465857Y74936D01*
X465299Y74681D01*
X464735Y74439D01*
X464165Y74211D01*
X463590Y73997D01*
X463010Y73798D01*
X462425Y73612D01*
X461836Y73442D01*
X461243Y73285D01*
X460646Y73143D01*
X460045Y73016D01*
X459442Y72904D01*
X458836Y72807D01*
X458228Y72724D01*
X457618Y72656D01*
X457007Y72604D01*
X456395Y72566D01*
X455782Y72544D01*
X455168Y72536D01*
X454554Y72544D01*
X453941Y72566D01*
X453329Y72604D01*
X452718Y72656D01*
X452108Y72724D01*
X451500Y72807D01*
X450894Y72904D01*
X450291Y73016D01*
X449690Y73143D01*
X449093Y73285D01*
X448500Y73442D01*
X447911Y73612D01*
X447326Y73798D01*
X446746Y73997D01*
X446171Y74211D01*
X445601Y74439D01*
X445037Y74681D01*
X444479Y74936D01*
X443928Y75205D01*
X443383Y75488D01*
X442846Y75784D01*
X442315Y76093D01*
X441793Y76415D01*
X441279Y76749D01*
X440773Y77096D01*
X440276Y77456D01*
X439787Y77827D01*
X439308Y78211D01*
X438839Y78606D01*
X438379Y79012D01*
X437929Y79430D01*
X437490Y79858D01*
X437062Y80297D01*
X436644Y80747D01*
X436238Y81207D01*
X435843Y81676D01*
X435459Y82155D01*
X435088Y82644D01*
X434728Y83141D01*
X434381Y83647D01*
X434047Y84161D01*
X433725Y84683D01*
X433416Y85214D01*
X433120Y85751D01*
X432837Y86296D01*
X432568Y86847D01*
X432313Y87405D01*
X432071Y87969D01*
X431843Y88539D01*
X431629Y89114D01*
X431430Y89694D01*
X431244Y90279D01*
X431074Y90868D01*
X430917Y91461D01*
X430775Y92058D01*
X430648Y92659D01*
X430536Y93262D01*
X430439Y93868D01*
X430356Y94476D01*
X430288Y95086D01*
X430236Y95697D01*
X430198Y96309D01*
X430176Y96922D01*
X430168Y97536D01*
D11*
X0Y0D02*
X500000Y0D01*
X500000Y450000D01*
X0Y450000D01*
X0Y0D01*
X73768Y405699D02*
X73689Y404298D01*
X73532Y402904D01*
X73297Y401521D01*
X72985Y400153D01*
X72597Y398805D01*
X72133Y397481D01*
X71597Y396185D01*
X70988Y394921D01*
X70309Y393693D01*
X69563Y392505D01*
X68751Y391361D01*
X67876Y390264D01*
X66942Y389218D01*
X65950Y388226D01*
X64904Y387292D01*
X63807Y386417D01*
X62663Y385605D01*
X61475Y384859D01*
X60247Y384180D01*
X58983Y383571D01*
X57687Y383035D01*
X56363Y382571D01*
X55015Y382183D01*
X53647Y381871D01*
X52264Y381636D01*
X50870Y381479D01*
X49469Y381400D01*
X48067Y381400D01*
X46666Y381479D01*
X45272Y381636D01*
X43889Y381871D01*
X42521Y382183D01*
X41173Y382571D01*
X39849Y383035D01*
X38553Y383571D01*
X37289Y384180D01*
X36061Y384859D01*
X34873Y385605D01*
X33729Y386417D01*
X32632Y387292D01*
X31586Y388226D01*
X30594Y389218D01*
X29660Y390264D01*
X28785Y391361D01*
X27973Y392505D01*
X27227Y393693D01*
X26548Y394921D01*
X25939Y396185D01*
X25403Y397481D01*
X24939Y398805D01*
X24551Y400153D01*
X24239Y401521D01*
X24004Y402904D01*
X23847Y404298D01*
X23768Y405699D01*
X23768Y407101D01*
X23847Y408502D01*
X24004Y409896D01*
X24239Y411279D01*
X24551Y412647D01*
X24939Y413995D01*
X25403Y415319D01*
X25939Y416615D01*
X26548Y417879D01*
X27227Y419107D01*
X27973Y420295D01*
X28785Y421439D01*
X29660Y422536D01*
X30594Y423582D01*
X31586Y424574D01*
X32632Y425508D01*
X33729Y426383D01*
X34873Y427195D01*
X36061Y427941D01*
X37289Y428620D01*
X38553Y429229D01*
X39849Y429765D01*
X41173Y430229D01*
X42521Y430617D01*
X43889Y430929D01*
X45272Y431164D01*
X46666Y431321D01*
X48067Y431400D01*
X49469Y431400D01*
X50870Y431321D01*
X52264Y431164D01*
X53647Y430929D01*
X55015Y430617D01*
X56363Y430229D01*
X57687Y429765D01*
X58983Y429229D01*
X60247Y428620D01*
X61475Y427941D01*
X62663Y427195D01*
X63807Y426383D01*
X64904Y425508D01*
X65950Y424574D01*
X66942Y423582D01*
X67876Y422536D01*
X68751Y421439D01*
X69563Y420295D01*
X70309Y419107D01*
X70988Y417879D01*
X71597Y416615D01*
X72133Y415319D01*
X72597Y413995D01*
X72985Y412647D01*
X73297Y411279D01*
X73532Y409896D01*
X73689Y408502D01*
X73768Y407101D01*
X73768Y405699D01*
X480168Y96835D02*
X480089Y95434D01*
X479932Y94040D01*
X479697Y92657D01*
X479385Y91289D01*
X478997Y89941D01*
X478533Y88617D01*
X477997Y87321D01*
X477388Y86057D01*
X476709Y84829D01*
X475963Y83641D01*
X475151Y82497D01*
X474276Y81400D01*
X473342Y80354D01*
X472350Y79362D01*
X471304Y78428D01*
X470207Y77553D01*
X469063Y76741D01*
X467875Y75995D01*
X466647Y75316D01*
X465383Y74707D01*
X464087Y74171D01*
X462763Y73707D01*
X461415Y73319D01*
X460047Y73007D01*
X458664Y72772D01*
X457270Y72615D01*
X455869Y72536D01*
X454467Y72536D01*
X453066Y72615D01*
X451672Y72772D01*
X450289Y73007D01*
X448921Y73319D01*
X447573Y73707D01*
X446249Y74171D01*
X444953Y74707D01*
X443689Y75316D01*
X442461Y75995D01*
X441273Y76741D01*
X440129Y77553D01*
X439032Y78428D01*
X437986Y79362D01*
X436994Y80354D01*
X436060Y81400D01*
X435185Y82497D01*
X434373Y83641D01*
X433627Y84829D01*
X432948Y86057D01*
X432339Y87321D01*
X431803Y88617D01*
X431339Y89941D01*
X430951Y91289D01*
X430639Y92657D01*
X430404Y94040D01*
X430247Y95434D01*
X430168Y96835D01*
X430168Y98237D01*
X430247Y99638D01*
X430404Y101032D01*
X430639Y102415D01*
X430951Y103783D01*
X431339Y105131D01*
X431803Y106455D01*
X432339Y107751D01*
X432948Y109015D01*
X433627Y110243D01*
X434373Y111431D01*
X435185Y112575D01*
X436060Y113672D01*
X436994Y114718D01*
X437986Y115710D01*
X439032Y116644D01*
X440129Y117519D01*
X441273Y118331D01*
X442461Y119077D01*
X443689Y119756D01*
X444953Y120365D01*
X446249Y120901D01*
X447573Y121365D01*
X448921Y121753D01*
X450289Y122065D01*
X451672Y122300D01*
X453066Y122457D01*
X454467Y122536D01*
X455869Y122536D01*
X457270Y122457D01*
X458664Y122300D01*
X460047Y122065D01*
X461415Y121753D01*
X462763Y121365D01*
X464087Y120901D01*
X465383Y120365D01*
X466647Y119756D01*
X467875Y119077D01*
X469063Y118331D01*
X470207Y117519D01*
X471304Y116644D01*
X472350Y115710D01*
X473342Y114718D01*
X474276Y113672D01*
X475151Y112575D01*
X475963Y111431D01*
X476709Y110243D01*
X477388Y109015D01*
X477997Y107751D01*
X478533Y106455D01*
X478997Y105131D01*
X479385Y103783D01*
X479697Y102415D01*
X479932Y101032D01*
X480089Y99638D01*
X480168Y98237D01*
X480168Y96835D01*
M02*
