M48
;GenerationSoftware,Autodesk,EAGLE,9.6.2*%
;CreationDate,2025-04-29T22:09:43Z*%
FMAT,2
ICI,OFF
METRIC,TZ,000.000
T5C0.813
T4C0.914
T3C1.016
T2C1.100
T1C5.000
%
G90
M71
T1
X4877Y40640
X45517Y9754
T2
X5341Y11146
X5341Y25471
X5341Y29281
X5341Y3526
X5341Y7336
T3
X17526Y13767
X17526Y31547
X42316Y3251
X44856Y3251
T4
X18847Y3150
X18847Y10770
X13157Y3099
X13157Y10719
X18034Y34544
X18034Y42164
X38862Y26264
X38862Y18644
X13157Y34442
X13157Y42062
X44552Y26365
X44552Y18745
T5
X38710Y32461
X35662Y12649
X35662Y2489
X39116Y2286
X39116Y12446
X12294Y24130
X12294Y13970
X22454Y26467
X22454Y16307
X23571Y32868
X26111Y32868
X28651Y32868
X31191Y32868
X31191Y40488
X28651Y40488
X26111Y40488
X23571Y40488
X23520Y2845
X26060Y2845
X28600Y2845
X31140Y2845
X31140Y10465
X28600Y10465
X26060Y10465
X23520Y10465
X22606Y28956
X31648Y25197
X29108Y25197
X26568Y25197
X26568Y17577
X29108Y17577
X31648Y17577
X34188Y25197
X32766Y28956
X21387Y13716
X31547Y13716
X35865Y32461
X35865Y42621
X38710Y42621
X34188Y17577
M30